<mxfile host="app.diagrams.net" modified="2023-12-29T16:24:09.760Z" agent="Mozilla/5.0 (Windows NT 10.0; Win64; x64) AppleWebKit/537.36 (KHTML, like Gecko) Chrome/120.0.0.0 Safari/537.36" etag="IUDDD_iRTPvKH4ME2IuW" version="22.1.16" type="device" pages="2">
  <diagram name="single_cycle" id="E-cS3wv_XoeDdycS55Jo">
    <mxGraphModel dx="2759" dy="1013" grid="1" gridSize="10" guides="1" tooltips="1" connect="1" arrows="1" fold="1" page="1" pageScale="1" pageWidth="850" pageHeight="1100" math="0" shadow="0">
      <root>
        <mxCell id="0" />
        <mxCell id="1" parent="0" />
        <mxCell id="Olr035WZX6d9rhfPIDPr-122" style="edgeStyle=orthogonalEdgeStyle;shape=connector;rounded=0;orthogonalLoop=1;jettySize=auto;html=1;exitX=0.5;exitY=1;exitDx=0;exitDy=0;exitPerimeter=0;labelBackgroundColor=default;strokeColor=#ff0000;align=center;verticalAlign=middle;fontFamily=Helvetica;fontSize=11;fontColor=default;endArrow=open;entryX=0.5;entryY=1;entryDx=0;entryDy=0;entryPerimeter=0;endFill=0;" parent="1" target="Olr035WZX6d9rhfPIDPr-2" edge="1">
          <mxGeometry relative="1" as="geometry">
            <mxPoint x="454.5" y="520" as="sourcePoint" />
          </mxGeometry>
        </mxCell>
        <mxCell id="Olr035WZX6d9rhfPIDPr-183" value="&lt;font color=&quot;#ff0000&quot;&gt;rf_en&lt;/font&gt;" style="edgeLabel;html=1;align=center;verticalAlign=middle;resizable=0;points=[];fontSize=11;fontFamily=Helvetica;fontColor=default;" parent="Olr035WZX6d9rhfPIDPr-122" connectable="0" vertex="1">
          <mxGeometry x="-0.7395" relative="1" as="geometry">
            <mxPoint y="6" as="offset" />
          </mxGeometry>
        </mxCell>
        <mxCell id="Olr035WZX6d9rhfPIDPr-2" value="&lt;b style=&quot;font-size: 8px;&quot;&gt;Register &lt;br&gt;File&lt;/b&gt;" style="rounded=0;whiteSpace=wrap;html=1;points=[[0,0,0,0,0],[0,0.25,0,0,0],[0,0.5,0,0,0],[0,0.75,0,0,0],[0,1,0,0,0],[0.25,0,0,0,0],[0.25,1,0,0,0],[0.5,0,0,0,0],[0.5,1,0,0,0],[0.75,0,0,0,0],[0.75,1,0,0,0],[1,0,0,0,0],[1,0.25,0,0,0],[1,0.5,0,0,0],[1,0.63,0,0,0],[1,0.75,0,0,0],[1,1,0,0,0]];" parent="1" vertex="1">
          <mxGeometry x="405" y="320" width="100" height="170" as="geometry" />
        </mxCell>
        <mxCell id="Olr035WZX6d9rhfPIDPr-4" value="&lt;b style=&quot;font-size: 8px;&quot;&gt;Instruction &lt;br&gt;Memory&lt;/b&gt;" style="rounded=0;whiteSpace=wrap;html=1;" parent="1" vertex="1">
          <mxGeometry x="34" y="320" width="110" height="165" as="geometry" />
        </mxCell>
        <mxCell id="Olr035WZX6d9rhfPIDPr-5" value="&lt;font style=&quot;font-size: 8px;&quot;&gt;&lt;b&gt;Instruction&lt;br&gt;Decoder&lt;/b&gt;&lt;/font&gt;" style="rounded=0;whiteSpace=wrap;html=1;" parent="1" vertex="1">
          <mxGeometry x="235" y="330" width="120" height="140" as="geometry" />
        </mxCell>
        <mxCell id="Olr035WZX6d9rhfPIDPr-6" style="edgeStyle=orthogonalEdgeStyle;rounded=0;orthogonalLoop=1;jettySize=auto;html=1;exitX=1;exitY=0.5;exitDx=0;exitDy=0;entryX=0;entryY=0.5;entryDx=0;entryDy=0;endArrow=open;endFill=0;" parent="1" source="Olr035WZX6d9rhfPIDPr-28" target="Olr035WZX6d9rhfPIDPr-27" edge="1">
          <mxGeometry relative="1" as="geometry" />
        </mxCell>
        <mxCell id="Olr035WZX6d9rhfPIDPr-9" value="&lt;font style=&quot;font-size: 8px;&quot;&gt;rs1&lt;/font&gt;" style="text;html=1;strokeColor=none;fillColor=none;align=center;verticalAlign=middle;whiteSpace=wrap;rounded=0;" parent="1" vertex="1">
          <mxGeometry x="405" y="340" width="20" height="10" as="geometry" />
        </mxCell>
        <mxCell id="Olr035WZX6d9rhfPIDPr-12" value="&lt;font style=&quot;font-size: 8px;&quot;&gt;rs2&lt;/font&gt;" style="text;html=1;strokeColor=none;fillColor=none;align=center;verticalAlign=middle;whiteSpace=wrap;rounded=0;" parent="1" vertex="1">
          <mxGeometry x="405" y="365" width="20" as="geometry" />
        </mxCell>
        <mxCell id="Olr035WZX6d9rhfPIDPr-13" value="&lt;font style=&quot;font-size: 8px;&quot;&gt;rd&lt;/font&gt;" style="text;html=1;strokeColor=none;fillColor=none;align=center;verticalAlign=middle;whiteSpace=wrap;rounded=0;" parent="1" vertex="1">
          <mxGeometry x="405" y="380" width="20" height="10" as="geometry" />
        </mxCell>
        <mxCell id="Olr035WZX6d9rhfPIDPr-15" value="&lt;font style=&quot;font-size: 8px;&quot;&gt;wdata&lt;/font&gt;" style="text;html=1;strokeColor=none;fillColor=none;align=center;verticalAlign=middle;whiteSpace=wrap;rounded=0;" parent="1" vertex="1">
          <mxGeometry x="405" y="441.1" width="30" height="10" as="geometry" />
        </mxCell>
        <mxCell id="Olr035WZX6d9rhfPIDPr-17" value="" style="endArrow=open;html=1;rounded=0;entryX=0;entryY=0.5;entryDx=0;entryDy=0;exitX=1;exitY=0.5;exitDx=0;exitDy=0;endFill=0;" parent="1" source="Olr035WZX6d9rhfPIDPr-20" target="Olr035WZX6d9rhfPIDPr-9" edge="1">
          <mxGeometry width="50" height="50" relative="1" as="geometry">
            <mxPoint x="355" y="350" as="sourcePoint" />
            <mxPoint x="405" y="300" as="targetPoint" />
          </mxGeometry>
        </mxCell>
        <mxCell id="Olr035WZX6d9rhfPIDPr-18" value="" style="endArrow=open;html=1;rounded=0;entryX=-0.004;entryY=0;entryDx=0;entryDy=0;entryPerimeter=0;exitX=1;exitY=0.5;exitDx=0;exitDy=0;endFill=0;" parent="1" source="Olr035WZX6d9rhfPIDPr-25" target="Olr035WZX6d9rhfPIDPr-12" edge="1">
          <mxGeometry width="50" height="50" relative="1" as="geometry">
            <mxPoint x="355" y="365" as="sourcePoint" />
            <mxPoint x="415" y="345" as="targetPoint" />
          </mxGeometry>
        </mxCell>
        <mxCell id="Olr035WZX6d9rhfPIDPr-19" value="" style="endArrow=open;html=1;rounded=0;exitX=1;exitY=0.5;exitDx=0;exitDy=0;entryX=0;entryY=0.5;entryDx=0;entryDy=0;endFill=0;" parent="1" source="Olr035WZX6d9rhfPIDPr-22" target="Olr035WZX6d9rhfPIDPr-13" edge="1">
          <mxGeometry width="50" height="50" relative="1" as="geometry">
            <mxPoint x="375" y="375" as="sourcePoint" />
            <mxPoint x="425" y="325" as="targetPoint" />
          </mxGeometry>
        </mxCell>
        <mxCell id="Olr035WZX6d9rhfPIDPr-20" value="&lt;font style=&quot;font-size: 8px;&quot;&gt;rs1&lt;/font&gt;" style="text;html=1;strokeColor=none;fillColor=none;align=center;verticalAlign=middle;whiteSpace=wrap;rounded=0;" parent="1" vertex="1">
          <mxGeometry x="335" y="340" width="20" height="10" as="geometry" />
        </mxCell>
        <mxCell id="Olr035WZX6d9rhfPIDPr-22" value="&lt;font style=&quot;font-size: 8px;&quot;&gt;rd&lt;/font&gt;" style="text;html=1;strokeColor=none;fillColor=none;align=center;verticalAlign=middle;whiteSpace=wrap;rounded=0;" parent="1" vertex="1">
          <mxGeometry x="335" y="380" width="20" height="10" as="geometry" />
        </mxCell>
        <mxCell id="Olr035WZX6d9rhfPIDPr-25" value="&lt;font style=&quot;font-size: 8px;&quot;&gt;rs2&lt;/font&gt;" style="text;html=1;strokeColor=none;fillColor=none;align=center;verticalAlign=middle;whiteSpace=wrap;rounded=0;" parent="1" vertex="1">
          <mxGeometry x="335" y="360" width="20" height="10" as="geometry" />
        </mxCell>
        <mxCell id="Olr035WZX6d9rhfPIDPr-27" value="&lt;font style=&quot;font-size: 8px;&quot;&gt;inst&lt;/font&gt;" style="text;html=1;strokeColor=none;fillColor=none;align=center;verticalAlign=middle;whiteSpace=wrap;rounded=0;" parent="1" vertex="1">
          <mxGeometry x="235" y="390" width="20" height="10" as="geometry" />
        </mxCell>
        <mxCell id="Olr035WZX6d9rhfPIDPr-28" value="&lt;font style=&quot;font-size: 8px;&quot;&gt;inst&lt;/font&gt;" style="text;html=1;strokeColor=none;fillColor=none;align=center;verticalAlign=middle;whiteSpace=wrap;rounded=0;" parent="1" vertex="1">
          <mxGeometry x="120" y="390" width="20" height="10" as="geometry" />
        </mxCell>
        <mxCell id="Olr035WZX6d9rhfPIDPr-40" style="edgeStyle=orthogonalEdgeStyle;rounded=0;orthogonalLoop=1;jettySize=auto;html=1;entryX=0.5;entryY=0;entryDx=0;entryDy=0;endArrow=open;endFill=0;" parent="1" source="Olr035WZX6d9rhfPIDPr-29" target="Olr035WZX6d9rhfPIDPr-35" edge="1">
          <mxGeometry relative="1" as="geometry">
            <mxPoint x="375" y="700.919540229885" as="targetPoint" />
            <Array as="points">
              <mxPoint x="260" y="670" />
              <mxPoint x="260" y="670" />
            </Array>
          </mxGeometry>
        </mxCell>
        <mxCell id="Olr035WZX6d9rhfPIDPr-29" value="&lt;font style=&quot;font-size: 8px;&quot;&gt;opcode&lt;/font&gt;" style="text;html=1;strokeColor=none;fillColor=none;align=center;verticalAlign=middle;whiteSpace=wrap;rounded=0;" parent="1" vertex="1">
          <mxGeometry x="245" y="450" width="30" height="20" as="geometry" />
        </mxCell>
        <mxCell id="Olr035WZX6d9rhfPIDPr-39" style="edgeStyle=orthogonalEdgeStyle;rounded=0;orthogonalLoop=1;jettySize=auto;html=1;exitX=0.5;exitY=1;exitDx=0;exitDy=0;entryX=0.5;entryY=0;entryDx=0;entryDy=0;endArrow=open;endFill=0;" parent="1" source="Olr035WZX6d9rhfPIDPr-30" target="Olr035WZX6d9rhfPIDPr-36" edge="1">
          <mxGeometry relative="1" as="geometry" />
        </mxCell>
        <mxCell id="Olr035WZX6d9rhfPIDPr-30" value="&lt;font style=&quot;font-size: 8px;&quot;&gt;funct3&lt;/font&gt;" style="text;html=1;strokeColor=none;fillColor=none;align=center;verticalAlign=middle;whiteSpace=wrap;rounded=0;" parent="1" vertex="1">
          <mxGeometry x="280" y="450" width="30" height="20" as="geometry" />
        </mxCell>
        <mxCell id="Olr035WZX6d9rhfPIDPr-38" style="edgeStyle=orthogonalEdgeStyle;rounded=0;orthogonalLoop=1;jettySize=auto;html=1;exitX=0.5;exitY=1;exitDx=0;exitDy=0;entryX=0.5;entryY=0;entryDx=0;entryDy=0;endArrow=open;endFill=0;" parent="1" source="Olr035WZX6d9rhfPIDPr-31" target="Olr035WZX6d9rhfPIDPr-37" edge="1">
          <mxGeometry relative="1" as="geometry" />
        </mxCell>
        <mxCell id="Olr035WZX6d9rhfPIDPr-31" value="&lt;font style=&quot;font-size: 8px;&quot;&gt;funct7&lt;/font&gt;" style="text;html=1;strokeColor=none;fillColor=none;align=center;verticalAlign=middle;whiteSpace=wrap;rounded=0;" parent="1" vertex="1">
          <mxGeometry x="315" y="450" width="30" height="20" as="geometry" />
        </mxCell>
        <mxCell id="Olr035WZX6d9rhfPIDPr-95" style="edgeStyle=orthogonalEdgeStyle;rounded=0;orthogonalLoop=1;jettySize=auto;html=1;entryX=0.57;entryY=0.83;entryDx=0;entryDy=0;entryPerimeter=0;strokeColor=#ff0000;endArrow=open;endFill=0;" parent="1" target="Olr035WZX6d9rhfPIDPr-55" edge="1">
          <mxGeometry relative="1" as="geometry">
            <mxPoint x="685" y="500" as="targetPoint" />
            <mxPoint x="720" y="470" as="sourcePoint" />
          </mxGeometry>
        </mxCell>
        <mxCell id="Olr035WZX6d9rhfPIDPr-180" value="&lt;font color=&quot;#ff0000&quot;&gt;alu_op&lt;/font&gt;" style="edgeLabel;html=1;align=center;verticalAlign=middle;resizable=0;points=[];fontSize=11;fontFamily=Helvetica;fontColor=default;" parent="Olr035WZX6d9rhfPIDPr-95" connectable="0" vertex="1">
          <mxGeometry x="-0.8885" relative="1" as="geometry">
            <mxPoint x="1" as="offset" />
          </mxGeometry>
        </mxCell>
        <mxCell id="Olr035WZX6d9rhfPIDPr-34" value="&lt;font style=&quot;font-size: 8px;&quot;&gt;&lt;b&gt;Controller&lt;/b&gt;&lt;/font&gt;" style="rounded=0;whiteSpace=wrap;html=1;points=[[0,0,0,0,0],[0,0.25,0,0,0],[0,0.5,0,0,0],[0,0.75,0,0,0],[0,1,0,0,0],[0.25,0,0,0,0],[0.25,1,0,0,0],[0.5,0,0,0,0],[0.5,1,0,0,0],[0.75,0,0,0,0],[0.75,1,0,0,0],[1,0.12,0,0,0],[1,0.31,0,0,0],[1,0.5,0,0,0],[1,0.69,0,0,0],[1,0.88,0,0,0]];" parent="1" vertex="1">
          <mxGeometry x="235" y="670" width="120" height="150" as="geometry" />
        </mxCell>
        <mxCell id="Olr035WZX6d9rhfPIDPr-35" value="&lt;font style=&quot;font-size: 8px;&quot;&gt;opcode&lt;/font&gt;" style="text;html=1;strokeColor=none;fillColor=none;align=center;verticalAlign=middle;whiteSpace=wrap;rounded=0;" parent="1" vertex="1">
          <mxGeometry x="245" y="670" width="30" height="20" as="geometry" />
        </mxCell>
        <mxCell id="Olr035WZX6d9rhfPIDPr-36" value="&lt;font style=&quot;font-size: 8px;&quot;&gt;funct3&lt;/font&gt;" style="text;html=1;strokeColor=none;fillColor=none;align=center;verticalAlign=middle;whiteSpace=wrap;rounded=0;" parent="1" vertex="1">
          <mxGeometry x="280" y="670" width="30" height="20" as="geometry" />
        </mxCell>
        <mxCell id="Olr035WZX6d9rhfPIDPr-37" value="&lt;font style=&quot;font-size: 8px;&quot;&gt;funct7&lt;/font&gt;" style="text;html=1;strokeColor=none;fillColor=none;align=center;verticalAlign=middle;whiteSpace=wrap;rounded=0;horizontal=1;" parent="1" vertex="1">
          <mxGeometry x="315" y="670" width="30" height="20" as="geometry" />
        </mxCell>
        <mxCell id="Olr035WZX6d9rhfPIDPr-60" style="edgeStyle=orthogonalEdgeStyle;rounded=0;orthogonalLoop=1;jettySize=auto;html=1;exitDx=0;exitDy=0;exitPerimeter=0;entryX=0;entryY=0.25;entryDx=0;entryDy=0;endArrow=open;endFill=0;" parent="1" source="Olr035WZX6d9rhfPIDPr-65" target="Olr035WZX6d9rhfPIDPr-59" edge="1">
          <mxGeometry relative="1" as="geometry">
            <Array as="points">
              <mxPoint x="955.4299999999998" y="395" />
              <mxPoint x="955.4299999999998" y="365" />
            </Array>
          </mxGeometry>
        </mxCell>
        <mxCell id="Olr035WZX6d9rhfPIDPr-55" value="" style="verticalLabelPosition=bottom;verticalAlign=top;html=1;shape=mxgraph.basic.polygon;polyCoords=[[0,0],[1,0.3],[1,0.5],[1,0.7],[0,1],[0,0.6],[0.2,0.5],[0,0.4]];polyline=0;shadow=0;aspect=fixed;points=[[0,0.21,0,0,0],[0,0.79,0,0,0],[0.57,0.83,0,0,0],[1,0.5,0,0,0]];" parent="1" vertex="1">
          <mxGeometry x="675" y="340" width="78.57" height="110" as="geometry" />
        </mxCell>
        <mxCell id="Olr035WZX6d9rhfPIDPr-57" style="edgeStyle=orthogonalEdgeStyle;rounded=0;orthogonalLoop=1;jettySize=auto;html=1;exitDx=0;exitDy=0;entryX=0.75;entryY=1;entryDx=0;entryDy=0;endArrow=open;endFill=0;" parent="1" source="Olr035WZX6d9rhfPIDPr-160" target="Olr035WZX6d9rhfPIDPr-111" edge="1">
          <mxGeometry relative="1" as="geometry">
            <Array as="points">
              <mxPoint x="545" y="363" />
            </Array>
          </mxGeometry>
        </mxCell>
        <mxCell id="Olr035WZX6d9rhfPIDPr-62" style="edgeStyle=orthogonalEdgeStyle;rounded=0;orthogonalLoop=1;jettySize=auto;html=1;exitX=1;exitY=0.5;exitDx=0;exitDy=0;entryX=0.6;entryY=1;entryDx=0;entryDy=0;entryPerimeter=0;endArrow=open;endFill=0;" parent="1" source="Olr035WZX6d9rhfPIDPr-59" target="Olr035WZX6d9rhfPIDPr-210" edge="1">
          <mxGeometry relative="1" as="geometry">
            <mxPoint x="1165.0549999999998" y="433.2950000000001" as="targetPoint" />
            <Array as="points">
              <mxPoint x="1084" y="403" />
              <mxPoint x="1167" y="403" />
            </Array>
          </mxGeometry>
        </mxCell>
        <mxCell id="Olr035WZX6d9rhfPIDPr-121" style="edgeStyle=orthogonalEdgeStyle;shape=connector;rounded=0;orthogonalLoop=1;jettySize=auto;html=1;labelBackgroundColor=default;strokeColor=#ff0000;align=center;verticalAlign=middle;fontFamily=Helvetica;fontSize=11;fontColor=default;endArrow=open;entryX=0.5;entryY=1;entryDx=0;entryDy=0;endFill=0;" parent="1" target="Olr035WZX6d9rhfPIDPr-59" edge="1">
          <mxGeometry relative="1" as="geometry">
            <mxPoint x="1020.4299999999998" y="510" as="sourcePoint" />
          </mxGeometry>
        </mxCell>
        <mxCell id="Olr035WZX6d9rhfPIDPr-179" value="&lt;font color=&quot;#ff0000&quot;&gt;dm_en&lt;/font&gt;" style="edgeLabel;html=1;align=center;verticalAlign=middle;resizable=0;points=[];fontSize=11;fontFamily=Helvetica;fontColor=default;" parent="Olr035WZX6d9rhfPIDPr-121" connectable="0" vertex="1">
          <mxGeometry x="-0.537" relative="1" as="geometry">
            <mxPoint y="12" as="offset" />
          </mxGeometry>
        </mxCell>
        <mxCell id="Olr035WZX6d9rhfPIDPr-59" value="&lt;font style=&quot;font-size: 8px;&quot;&gt;&lt;b&gt;Data&lt;br&gt;Memory&lt;/b&gt;&lt;/font&gt;" style="whiteSpace=wrap;html=1;" parent="1" vertex="1">
          <mxGeometry x="975.4299999999998" y="327.5" width="90" height="150" as="geometry" />
        </mxCell>
        <mxCell id="Olr035WZX6d9rhfPIDPr-124" style="edgeStyle=orthogonalEdgeStyle;shape=connector;rounded=0;orthogonalLoop=1;jettySize=auto;html=1;labelBackgroundColor=default;strokeColor=#000000;align=center;verticalAlign=middle;fontFamily=Helvetica;fontSize=11;fontColor=default;endArrow=open;entryX=0;entryY=0.75;entryDx=0;entryDy=0;entryPerimeter=0;endFill=0;exitX=0.5;exitY=0;exitDx=0;exitDy=0;exitPerimeter=0;" parent="1" source="Olr035WZX6d9rhfPIDPr-210" edge="1">
          <mxGeometry relative="1" as="geometry">
            <mxPoint x="406" y="447.5" as="targetPoint" />
            <mxPoint x="1100" y="400" as="sourcePoint" />
            <Array as="points">
              <mxPoint x="1370" y="395" />
              <mxPoint x="1370" y="530" />
              <mxPoint x="376" y="530" />
              <mxPoint x="376" y="447" />
            </Array>
          </mxGeometry>
        </mxCell>
        <mxCell id="Olr035WZX6d9rhfPIDPr-64" value="" style="edgeStyle=orthogonalEdgeStyle;rounded=0;orthogonalLoop=1;jettySize=auto;html=1;exitX=1;exitY=0.5;exitDx=0;exitDy=0;entryDx=0;entryDy=0;endArrow=none;endFill=0;entryX=0.434;entryY=0.63;entryPerimeter=0;exitPerimeter=0;" parent="1" source="Olr035WZX6d9rhfPIDPr-55" target="Olr035WZX6d9rhfPIDPr-65" edge="1">
          <mxGeometry relative="1" as="geometry">
            <mxPoint x="804.9999999999997" y="395" as="sourcePoint" />
            <mxPoint x="804.9999999999998" y="404.86" as="targetPoint" />
            <Array as="points">
              <mxPoint x="785" y="395" />
              <mxPoint x="785" y="395" />
            </Array>
          </mxGeometry>
        </mxCell>
        <mxCell id="Olr035WZX6d9rhfPIDPr-66" style="edgeStyle=orthogonalEdgeStyle;rounded=0;orthogonalLoop=1;jettySize=auto;html=1;entryX=0.4;entryY=1;entryDx=0;entryDy=0;entryPerimeter=0;endArrow=open;endFill=0;" parent="1" source="Olr035WZX6d9rhfPIDPr-170" target="Olr035WZX6d9rhfPIDPr-210" edge="1">
          <mxGeometry relative="1" as="geometry">
            <mxPoint x="1165.0549999999998" y="402.4949999999999" as="targetPoint" />
            <Array as="points">
              <mxPoint x="1114" y="300" />
              <mxPoint x="1114" y="390" />
              <mxPoint x="1167" y="390" />
            </Array>
          </mxGeometry>
        </mxCell>
        <mxCell id="Olr035WZX6d9rhfPIDPr-205" style="edgeStyle=orthogonalEdgeStyle;shape=connector;rounded=0;orthogonalLoop=1;jettySize=auto;html=1;entryX=0;entryY=0.5;entryDx=0;entryDy=0;labelBackgroundColor=default;strokeColor=#0000ff;align=center;verticalAlign=middle;fontFamily=Helvetica;fontSize=11;fontColor=default;endArrow=open;endFill=0;" parent="1" source="Olr035WZX6d9rhfPIDPr-65" target="Olr035WZX6d9rhfPIDPr-195" edge="1">
          <mxGeometry relative="1" as="geometry">
            <Array as="points">
              <mxPoint x="934" y="395" />
              <mxPoint x="934" y="615" />
            </Array>
          </mxGeometry>
        </mxCell>
        <mxCell id="Olr035WZX6d9rhfPIDPr-65" value="" style="shape=waypoint;sketch=0;fillStyle=solid;size=6;pointerEvents=1;points=[];fillColor=none;resizable=0;rotatable=0;perimeter=centerPerimeter;snapToPoint=1;" parent="1" vertex="1">
          <mxGeometry x="923.4299999999998" y="385" width="20" height="20" as="geometry" />
        </mxCell>
        <mxCell id="Olr035WZX6d9rhfPIDPr-70" style="edgeStyle=orthogonalEdgeStyle;rounded=0;orthogonalLoop=1;jettySize=auto;html=1;entryX=0;entryY=0.5;entryDx=0;entryDy=0;endArrow=open;endFill=0;" parent="1" source="Olr035WZX6d9rhfPIDPr-77" target="Olr035WZX6d9rhfPIDPr-4" edge="1">
          <mxGeometry relative="1" as="geometry" />
        </mxCell>
        <mxCell id="Olr035WZX6d9rhfPIDPr-69" value="&lt;font style=&quot;font-size: 8px;&quot;&gt;&lt;b&gt;Program&lt;br&gt;Counter&lt;/b&gt;&lt;/font&gt;" style="rounded=0;whiteSpace=wrap;html=1;" parent="1" vertex="1">
          <mxGeometry x="-105" y="355.93" width="70" height="93.13" as="geometry" />
        </mxCell>
        <mxCell id="Olr035WZX6d9rhfPIDPr-71" value="" style="triangle;whiteSpace=wrap;html=1;rotation=-90;" parent="1" vertex="1">
          <mxGeometry x="-80" y="429.05999999999995" width="20" height="20" as="geometry" />
        </mxCell>
        <mxCell id="Olr035WZX6d9rhfPIDPr-73" value="&lt;b&gt;+&lt;/b&gt;" style="ellipse;whiteSpace=wrap;html=1;aspect=fixed;" parent="1" vertex="1">
          <mxGeometry x="1050.4299999999998" y="235" width="30" height="30" as="geometry" />
        </mxCell>
        <mxCell id="Olr035WZX6d9rhfPIDPr-74" style="edgeStyle=orthogonalEdgeStyle;rounded=0;orthogonalLoop=1;jettySize=auto;html=1;entryX=0.2;entryY=1;entryDx=0;entryDy=0;entryPerimeter=0;endArrow=open;endFill=0;" parent="1" source="Olr035WZX6d9rhfPIDPr-73" target="Olr035WZX6d9rhfPIDPr-210" edge="1">
          <mxGeometry relative="1" as="geometry">
            <mxPoint x="1165.0549999999998" y="371.6949999999997" as="targetPoint" />
            <Array as="points">
              <mxPoint x="1144" y="250" />
              <mxPoint x="1144" y="375" />
            </Array>
          </mxGeometry>
        </mxCell>
        <mxCell id="Olr035WZX6d9rhfPIDPr-78" value="" style="edgeStyle=orthogonalEdgeStyle;rounded=0;orthogonalLoop=1;jettySize=auto;html=1;entryDx=0;entryDy=0;endArrow=none;endFill=0;" parent="1" source="Olr035WZX6d9rhfPIDPr-69" target="Olr035WZX6d9rhfPIDPr-77" edge="1">
          <mxGeometry relative="1" as="geometry">
            <mxPoint x="-35" y="402" as="sourcePoint" />
            <mxPoint x="45" y="403" as="targetPoint" />
          </mxGeometry>
        </mxCell>
        <mxCell id="Olr035WZX6d9rhfPIDPr-80" style="edgeStyle=orthogonalEdgeStyle;rounded=0;orthogonalLoop=1;jettySize=auto;html=1;entryX=0;entryY=0.5;entryDx=0;entryDy=0;endArrow=open;endFill=0;" parent="1" source="Olr035WZX6d9rhfPIDPr-202" target="Olr035WZX6d9rhfPIDPr-73" edge="1">
          <mxGeometry relative="1" as="geometry">
            <mxPoint x="915.43" y="260" as="targetPoint" />
            <Array as="points">
              <mxPoint x="915.43" y="250" />
              <mxPoint x="915.43" y="250" />
            </Array>
          </mxGeometry>
        </mxCell>
        <mxCell id="Olr035WZX6d9rhfPIDPr-86" style="edgeStyle=orthogonalEdgeStyle;rounded=0;orthogonalLoop=1;jettySize=auto;html=1;entryX=1;entryY=0.5;entryDx=0;entryDy=0;endArrow=open;endFill=0;" parent="1" source="Olr035WZX6d9rhfPIDPr-77" target="Olr035WZX6d9rhfPIDPr-85" edge="1">
          <mxGeometry relative="1" as="geometry">
            <Array as="points">
              <mxPoint x="5" y="505" />
            </Array>
          </mxGeometry>
        </mxCell>
        <mxCell id="Olr035WZX6d9rhfPIDPr-77" value="" style="shape=waypoint;sketch=0;fillStyle=solid;size=6;pointerEvents=1;points=[];fillColor=none;resizable=0;rotatable=0;perimeter=centerPerimeter;snapToPoint=1;" parent="1" vertex="1">
          <mxGeometry x="-5" y="392.5" width="20" height="20" as="geometry" />
        </mxCell>
        <mxCell id="Olr035WZX6d9rhfPIDPr-87" style="edgeStyle=orthogonalEdgeStyle;rounded=0;orthogonalLoop=1;jettySize=auto;html=1;exitX=0.5;exitY=0;exitDx=0;exitDy=0;entryX=0.25;entryY=1;entryDx=0;entryDy=0;endArrow=open;endFill=0;" parent="1" source="Olr035WZX6d9rhfPIDPr-134" target="Olr035WZX6d9rhfPIDPr-232" edge="1">
          <mxGeometry relative="1" as="geometry">
            <Array as="points" />
          </mxGeometry>
        </mxCell>
        <mxCell id="Olr035WZX6d9rhfPIDPr-85" value="&lt;b&gt;+&lt;/b&gt;" style="ellipse;whiteSpace=wrap;html=1;aspect=fixed;" parent="1" vertex="1">
          <mxGeometry x="-90" y="490" width="30" height="30" as="geometry" />
        </mxCell>
        <mxCell id="Olr035WZX6d9rhfPIDPr-91" style="edgeStyle=orthogonalEdgeStyle;rounded=0;orthogonalLoop=1;jettySize=auto;html=1;entryX=0.5;entryY=1;entryDx=0;entryDy=0;endArrow=open;endFill=0;" parent="1" source="Olr035WZX6d9rhfPIDPr-90" target="Olr035WZX6d9rhfPIDPr-85" edge="1">
          <mxGeometry relative="1" as="geometry" />
        </mxCell>
        <mxCell id="Olr035WZX6d9rhfPIDPr-90" value="&lt;b&gt;32&#39;d4&lt;/b&gt;" style="text;html=1;strokeColor=none;fillColor=none;align=center;verticalAlign=middle;whiteSpace=wrap;rounded=0;" parent="1" vertex="1">
          <mxGeometry x="-105" y="560" width="60" height="30" as="geometry" />
        </mxCell>
        <mxCell id="Olr035WZX6d9rhfPIDPr-93" style="edgeStyle=orthogonalEdgeStyle;rounded=0;orthogonalLoop=1;jettySize=auto;html=1;entryX=0.5;entryY=0;entryDx=0;entryDy=0;endArrow=open;endFill=0;" parent="1" source="Olr035WZX6d9rhfPIDPr-92" target="Olr035WZX6d9rhfPIDPr-73" edge="1">
          <mxGeometry relative="1" as="geometry" />
        </mxCell>
        <mxCell id="Olr035WZX6d9rhfPIDPr-92" value="&lt;b&gt;32&#39;d4&lt;/b&gt;" style="text;html=1;strokeColor=none;fillColor=none;align=center;verticalAlign=middle;whiteSpace=wrap;rounded=0;" parent="1" vertex="1">
          <mxGeometry x="1035.4299999999998" y="170" width="60" height="30" as="geometry" />
        </mxCell>
        <mxCell id="Olr035WZX6d9rhfPIDPr-94" value="&lt;font style=&quot;font-size: 8px;&quot;&gt;addr&lt;/font&gt;" style="text;html=1;strokeColor=none;fillColor=none;align=center;verticalAlign=middle;whiteSpace=wrap;rounded=0;" parent="1" vertex="1">
          <mxGeometry x="45" y="397.49" width="30" height="10" as="geometry" />
        </mxCell>
        <mxCell id="Olr035WZX6d9rhfPIDPr-119" style="edgeStyle=orthogonalEdgeStyle;rounded=0;orthogonalLoop=1;jettySize=auto;html=1;entryX=1;entryY=0.5;entryDx=0;entryDy=0;strokeColor=#ff0000;endArrow=open;endFill=0;" parent="1" target="Olr035WZX6d9rhfPIDPr-96" edge="1">
          <mxGeometry relative="1" as="geometry">
            <mxPoint x="630" y="500" as="sourcePoint" />
          </mxGeometry>
        </mxCell>
        <mxCell id="Olr035WZX6d9rhfPIDPr-182" value="&lt;font color=&quot;#ff0000&quot;&gt;opr_b_sel&lt;/font&gt;" style="edgeLabel;html=1;align=center;verticalAlign=middle;resizable=0;points=[];fontSize=11;fontFamily=Helvetica;fontColor=default;" parent="Olr035WZX6d9rhfPIDPr-119" connectable="0" vertex="1">
          <mxGeometry x="-0.8593" y="1" relative="1" as="geometry">
            <mxPoint x="1" y="2" as="offset" />
          </mxGeometry>
        </mxCell>
        <mxCell id="Olr035WZX6d9rhfPIDPr-96" value="" style="shape=trapezoid;perimeter=trapezoidPerimeter;whiteSpace=wrap;html=1;fixedSize=1;rotation=90;size=13.269999999999982;" parent="1" vertex="1">
          <mxGeometry x="595" y="433" width="70" height="22.2" as="geometry" />
        </mxCell>
        <mxCell id="Olr035WZX6d9rhfPIDPr-99" style="edgeStyle=orthogonalEdgeStyle;rounded=0;orthogonalLoop=1;jettySize=auto;html=1;exitX=0.5;exitY=0;exitDx=0;exitDy=0;exitPerimeter=0;entryX=0;entryY=0.79;entryDx=0;entryDy=0;entryPerimeter=0;endArrow=open;endFill=0;" parent="1" source="Olr035WZX6d9rhfPIDPr-96" target="Olr035WZX6d9rhfPIDPr-55" edge="1">
          <mxGeometry relative="1" as="geometry">
            <Array as="points">
              <mxPoint x="655" y="446" />
              <mxPoint x="655" y="427" />
            </Array>
          </mxGeometry>
        </mxCell>
        <mxCell id="Olr035WZX6d9rhfPIDPr-105" style="edgeStyle=orthogonalEdgeStyle;rounded=0;orthogonalLoop=1;jettySize=auto;html=1;entryX=0.75;entryY=1;entryDx=0;entryDy=0;exitX=1;exitY=0.5;exitDx=0;exitDy=0;endArrow=open;endFill=0;" parent="1" source="Olr035WZX6d9rhfPIDPr-101" target="Olr035WZX6d9rhfPIDPr-96" edge="1">
          <mxGeometry relative="1" as="geometry">
            <Array as="points">
              <mxPoint x="585" y="575" />
              <mxPoint x="585" y="462" />
            </Array>
          </mxGeometry>
        </mxCell>
        <mxCell id="Olr035WZX6d9rhfPIDPr-118" style="edgeStyle=orthogonalEdgeStyle;rounded=0;orthogonalLoop=1;jettySize=auto;html=1;strokeColor=#FF0000;endArrow=open;endFill=0;" parent="1" target="Olr035WZX6d9rhfPIDPr-101" edge="1">
          <mxGeometry relative="1" as="geometry">
            <mxPoint x="434" y="629" as="sourcePoint" />
          </mxGeometry>
        </mxCell>
        <mxCell id="Olr035WZX6d9rhfPIDPr-184" value="&lt;font color=&quot;#ff0000&quot;&gt;imm_type&lt;/font&gt;" style="edgeLabel;html=1;align=center;verticalAlign=middle;resizable=0;points=[];fontSize=11;fontFamily=Helvetica;fontColor=default;" parent="Olr035WZX6d9rhfPIDPr-118" connectable="0" vertex="1">
          <mxGeometry x="-0.6403" y="1" relative="1" as="geometry">
            <mxPoint x="2" y="5" as="offset" />
          </mxGeometry>
        </mxCell>
        <mxCell id="Olr035WZX6d9rhfPIDPr-101" value="&lt;font style=&quot;font-size: 8px;&quot;&gt;&lt;b&gt;Immediate&lt;br&gt;Generator&lt;/b&gt;&lt;/font&gt;" style="rounded=0;whiteSpace=wrap;html=1;" parent="1" vertex="1">
          <mxGeometry x="385" y="549" width="100" height="50" as="geometry" />
        </mxCell>
        <mxCell id="Olr035WZX6d9rhfPIDPr-107" style="edgeStyle=orthogonalEdgeStyle;rounded=0;orthogonalLoop=1;jettySize=auto;html=1;entryX=0;entryY=0.5;entryDx=0;entryDy=0;endArrow=open;endFill=0;" parent="1" source="Olr035WZX6d9rhfPIDPr-106" target="Olr035WZX6d9rhfPIDPr-101" edge="1">
          <mxGeometry relative="1" as="geometry">
            <Array as="points">
              <mxPoint x="205" y="574" />
            </Array>
          </mxGeometry>
        </mxCell>
        <mxCell id="Olr035WZX6d9rhfPIDPr-106" value="" style="shape=waypoint;sketch=0;fillStyle=solid;size=6;pointerEvents=1;points=[];fillColor=none;resizable=0;rotatable=0;perimeter=centerPerimeter;snapToPoint=1;" parent="1" vertex="1">
          <mxGeometry x="195" y="385" width="20" height="20" as="geometry" />
        </mxCell>
        <mxCell id="Olr035WZX6d9rhfPIDPr-120" style="edgeStyle=orthogonalEdgeStyle;rounded=0;orthogonalLoop=1;jettySize=auto;html=1;entryX=1;entryY=0.5;entryDx=0;entryDy=0;strokeColor=#ff0000;endArrow=open;endFill=0;" parent="1" target="Olr035WZX6d9rhfPIDPr-111" edge="1">
          <mxGeometry relative="1" as="geometry">
            <mxPoint x="630" y="400" as="sourcePoint" />
          </mxGeometry>
        </mxCell>
        <mxCell id="Olr035WZX6d9rhfPIDPr-181" value="&lt;font color=&quot;#ff0000&quot;&gt;opr_a_sel&lt;/font&gt;" style="edgeLabel;html=1;align=center;verticalAlign=middle;resizable=0;points=[];fontSize=11;fontFamily=Helvetica;fontColor=default;" parent="Olr035WZX6d9rhfPIDPr-120" connectable="0" vertex="1">
          <mxGeometry x="-0.9068" y="-1" relative="1" as="geometry">
            <mxPoint as="offset" />
          </mxGeometry>
        </mxCell>
        <mxCell id="Olr035WZX6d9rhfPIDPr-111" value="" style="shape=trapezoid;perimeter=trapezoidPerimeter;whiteSpace=wrap;html=1;fixedSize=1;rotation=90;size=13.269999999999982;" parent="1" vertex="1">
          <mxGeometry x="595" y="333.9" width="70" height="22.2" as="geometry" />
        </mxCell>
        <mxCell id="Olr035WZX6d9rhfPIDPr-112" value="" style="edgeStyle=orthogonalEdgeStyle;rounded=0;orthogonalLoop=1;jettySize=auto;html=1;endArrow=none;endFill=0;" parent="1" source="sBOxtMemxzJCtZdBsG6Z-6" target="Olr035WZX6d9rhfPIDPr-77" edge="1">
          <mxGeometry relative="1" as="geometry">
            <mxPoint x="565" y="270" as="sourcePoint" />
            <mxPoint x="-145" y="385" as="targetPoint" />
            <Array as="points">
              <mxPoint x="20" y="250" />
              <mxPoint x="20" y="403" />
            </Array>
          </mxGeometry>
        </mxCell>
        <mxCell id="Olr035WZX6d9rhfPIDPr-114" style="edgeStyle=orthogonalEdgeStyle;rounded=0;orthogonalLoop=1;jettySize=auto;html=1;entryX=0.25;entryY=1;entryDx=0;entryDy=0;endArrow=open;endFill=0;" parent="1" source="Olr035WZX6d9rhfPIDPr-110" target="Olr035WZX6d9rhfPIDPr-111" edge="1">
          <mxGeometry relative="1" as="geometry">
            <mxPoint x="585" y="270" as="sourcePoint" />
            <Array as="points">
              <mxPoint x="585" y="328" />
            </Array>
          </mxGeometry>
        </mxCell>
        <mxCell id="Olr035WZX6d9rhfPIDPr-115" style="edgeStyle=orthogonalEdgeStyle;rounded=0;orthogonalLoop=1;jettySize=auto;html=1;entryX=0;entryY=0.21;entryDx=0;entryDy=0;entryPerimeter=0;exitX=0.5;exitY=0;exitDx=0;exitDy=0;endArrow=open;endFill=0;" parent="1" source="Olr035WZX6d9rhfPIDPr-111" target="Olr035WZX6d9rhfPIDPr-55" edge="1">
          <mxGeometry relative="1" as="geometry">
            <mxPoint x="635" y="360" as="sourcePoint" />
            <Array as="points">
              <mxPoint x="655" y="345" />
              <mxPoint x="655" y="363" />
            </Array>
          </mxGeometry>
        </mxCell>
        <mxCell id="Olr035WZX6d9rhfPIDPr-133" style="edgeStyle=orthogonalEdgeStyle;shape=connector;rounded=0;orthogonalLoop=1;jettySize=auto;html=1;labelBackgroundColor=default;strokeColor=#000000;align=center;verticalAlign=middle;fontFamily=Helvetica;fontSize=11;fontColor=default;endArrow=open;exitX=1;exitY=0.75;exitDx=0;exitDy=0;entryX=0;entryY=0.5;entryDx=0;entryDy=0;endFill=0;" parent="1" source="Olr035WZX6d9rhfPIDPr-137" target="Olr035WZX6d9rhfPIDPr-136" edge="1">
          <mxGeometry relative="1" as="geometry">
            <mxPoint x="245" y="726.5" as="targetPoint" />
            <mxPoint x="755.71" y="621.5" as="sourcePoint" />
            <Array as="points">
              <mxPoint x="745" y="620" />
              <mxPoint x="745" y="870" />
              <mxPoint x="185" y="870" />
              <mxPoint x="185" y="745" />
            </Array>
          </mxGeometry>
        </mxCell>
        <mxCell id="Olr035WZX6d9rhfPIDPr-126" value="&lt;font style=&quot;font-size: 8px;&quot;&gt;&lt;b&gt;Branch&lt;br&gt;Comparator&lt;/b&gt;&lt;/font&gt;" style="whiteSpace=wrap;html=1;fontFamily=Helvetica;fontSize=11;fontColor=default;" parent="1" vertex="1">
          <mxGeometry x="624.29" y="590" width="80.71" height="60" as="geometry" />
        </mxCell>
        <mxCell id="Olr035WZX6d9rhfPIDPr-129" style="edgeStyle=orthogonalEdgeStyle;shape=connector;rounded=0;orthogonalLoop=1;jettySize=auto;html=1;entryX=0;entryY=1;entryDx=0;entryDy=0;labelBackgroundColor=default;strokeColor=#000000;align=center;verticalAlign=middle;fontFamily=Helvetica;fontSize=11;fontColor=default;endArrow=open;endFill=0;" parent="1" source="Olr035WZX6d9rhfPIDPr-160" target="Olr035WZX6d9rhfPIDPr-139" edge="1">
          <mxGeometry relative="1" as="geometry">
            <mxPoint x="635" y="380" as="sourcePoint" />
            <mxPoint x="675.0000000000002" y="607" as="targetPoint" />
            <Array as="points">
              <mxPoint x="545" y="607" />
            </Array>
          </mxGeometry>
        </mxCell>
        <mxCell id="Olr035WZX6d9rhfPIDPr-132" style="edgeStyle=orthogonalEdgeStyle;shape=connector;rounded=0;orthogonalLoop=1;jettySize=auto;html=1;labelBackgroundColor=default;strokeColor=#000000;align=center;verticalAlign=middle;fontFamily=Helvetica;fontSize=11;fontColor=default;endArrow=open;entryX=0;entryY=0.75;entryDx=0;entryDy=0;endFill=0;" parent="1" source="Olr035WZX6d9rhfPIDPr-131" target="Olr035WZX6d9rhfPIDPr-126" edge="1">
          <mxGeometry relative="1" as="geometry">
            <mxPoint x="615" y="350" as="targetPoint" />
            <mxPoint x="535" y="430" as="sourcePoint" />
            <Array as="points">
              <mxPoint x="525" y="635" />
            </Array>
          </mxGeometry>
        </mxCell>
        <mxCell id="Olr035WZX6d9rhfPIDPr-135" value="" style="edgeStyle=orthogonalEdgeStyle;rounded=0;orthogonalLoop=1;jettySize=auto;html=1;exitX=0;exitY=0.5;exitDx=0;exitDy=0;entryX=0.75;entryY=1;entryDx=0;entryDy=0;endArrow=open;endFill=0;" parent="1" source="Olr035WZX6d9rhfPIDPr-85" target="Olr035WZX6d9rhfPIDPr-134" edge="1">
          <mxGeometry relative="1" as="geometry">
            <mxPoint x="-90" y="505" as="sourcePoint" />
            <mxPoint x="-105" y="402" as="targetPoint" />
            <Array as="points">
              <mxPoint x="-305" y="505" />
              <mxPoint x="-305" y="419" />
            </Array>
          </mxGeometry>
        </mxCell>
        <mxCell id="Olr035WZX6d9rhfPIDPr-134" value="" style="shape=trapezoid;perimeter=trapezoidPerimeter;whiteSpace=wrap;html=1;fixedSize=1;rotation=90;size=13.269999999999982;" parent="1" vertex="1">
          <mxGeometry x="-265" y="389.9999999999999" width="70" height="22.2" as="geometry" />
        </mxCell>
        <mxCell id="Olr035WZX6d9rhfPIDPr-136" value="&lt;font style=&quot;font-size: 8px;&quot;&gt;comp&lt;/font&gt;" style="text;html=1;strokeColor=none;fillColor=none;align=center;verticalAlign=middle;whiteSpace=wrap;rounded=0;" parent="1" vertex="1">
          <mxGeometry x="235" y="735" width="30" height="20" as="geometry" />
        </mxCell>
        <mxCell id="Olr035WZX6d9rhfPIDPr-137" value="&lt;font style=&quot;font-size: 6px;&quot;&gt;comp&lt;/font&gt;" style="text;html=1;strokeColor=none;fillColor=none;align=center;verticalAlign=middle;whiteSpace=wrap;rounded=0;" parent="1" vertex="1">
          <mxGeometry x="685" y="613" width="20" height="10" as="geometry" />
        </mxCell>
        <mxCell id="Olr035WZX6d9rhfPIDPr-139" value="&lt;font style=&quot;font-size: 6px;&quot;&gt;opr_a&lt;/font&gt;" style="text;html=1;strokeColor=none;fillColor=none;align=center;verticalAlign=middle;whiteSpace=wrap;rounded=0;" parent="1" vertex="1">
          <mxGeometry x="624.29" y="599" width="20" height="8" as="geometry" />
        </mxCell>
        <mxCell id="Olr035WZX6d9rhfPIDPr-140" value="&lt;font style=&quot;font-size: 6px;&quot;&gt;opr_b&lt;/font&gt;" style="text;html=1;strokeColor=none;fillColor=none;align=center;verticalAlign=middle;whiteSpace=wrap;rounded=0;" parent="1" vertex="1">
          <mxGeometry x="624.29" y="629" width="20" height="8" as="geometry" />
        </mxCell>
        <mxCell id="Olr035WZX6d9rhfPIDPr-143" value="&lt;font style=&quot;font-size: 6px;&quot;&gt;pc_in&lt;/font&gt;" style="text;html=1;strokeColor=none;fillColor=none;align=center;verticalAlign=middle;whiteSpace=wrap;rounded=0;" parent="1" vertex="1">
          <mxGeometry x="-105" y="393" width="20" height="15" as="geometry" />
        </mxCell>
        <mxCell id="Olr035WZX6d9rhfPIDPr-144" value="&lt;font style=&quot;font-size: 6px;&quot;&gt;pc_out&lt;/font&gt;" style="text;html=1;strokeColor=none;fillColor=none;align=center;verticalAlign=middle;whiteSpace=wrap;rounded=0;" parent="1" vertex="1">
          <mxGeometry x="-57" y="396" width="22" height="10" as="geometry" />
        </mxCell>
        <mxCell id="Olr035WZX6d9rhfPIDPr-149" style="edgeStyle=orthogonalEdgeStyle;shape=connector;rounded=0;orthogonalLoop=1;jettySize=auto;html=1;entryX=0;entryY=0.75;entryDx=0;entryDy=0;labelBackgroundColor=default;strokeColor=#000000;align=center;verticalAlign=middle;fontFamily=Helvetica;fontSize=11;fontColor=default;endArrow=open;endFill=0;" parent="1" source="Olr035WZX6d9rhfPIDPr-147" target="Olr035WZX6d9rhfPIDPr-59" edge="1">
          <mxGeometry relative="1" as="geometry">
            <Array as="points">
              <mxPoint x="565" y="510" />
              <mxPoint x="780" y="510" />
              <mxPoint x="780" y="440" />
            </Array>
          </mxGeometry>
        </mxCell>
        <mxCell id="Olr035WZX6d9rhfPIDPr-150" value="&lt;font style=&quot;font-size: 8px;&quot;&gt;rdata2&lt;/font&gt;" style="text;html=1;strokeColor=none;fillColor=none;align=center;verticalAlign=middle;whiteSpace=wrap;rounded=0;" parent="1" vertex="1">
          <mxGeometry x="475" y="420" width="30" height="10" as="geometry" />
        </mxCell>
        <mxCell id="Olr035WZX6d9rhfPIDPr-151" value="&lt;font style=&quot;font-size: 8px;&quot;&gt;rdata1&lt;/font&gt;" style="text;html=1;strokeColor=none;fillColor=none;align=center;verticalAlign=middle;whiteSpace=wrap;rounded=0;" parent="1" vertex="1">
          <mxGeometry x="475" y="356.1" width="30" height="10" as="geometry" />
        </mxCell>
        <mxCell id="Olr035WZX6d9rhfPIDPr-147" value="" style="shape=waypoint;sketch=0;fillStyle=solid;size=6;pointerEvents=1;points=[];fillColor=none;resizable=0;rotatable=0;perimeter=centerPerimeter;snapToPoint=1;fontFamily=Helvetica;fontSize=11;fontColor=default;" parent="1" vertex="1">
          <mxGeometry x="555" y="416.87" width="20" height="20" as="geometry" />
        </mxCell>
        <mxCell id="Olr035WZX6d9rhfPIDPr-156" value="" style="edgeStyle=orthogonalEdgeStyle;rounded=0;orthogonalLoop=1;jettySize=auto;html=1;entryDx=0;entryDy=0;entryPerimeter=0;exitX=1;exitY=0.63;exitDx=0;exitDy=0;exitPerimeter=0;endArrow=none;endFill=0;" parent="1" source="Olr035WZX6d9rhfPIDPr-2" target="Olr035WZX6d9rhfPIDPr-131" edge="1">
          <mxGeometry relative="1" as="geometry">
            <mxPoint x="505" y="427" as="sourcePoint" />
            <mxPoint x="555" y="427" as="targetPoint" />
            <Array as="points" />
          </mxGeometry>
        </mxCell>
        <mxCell id="Olr035WZX6d9rhfPIDPr-238" style="edgeStyle=orthogonalEdgeStyle;shape=connector;rounded=0;orthogonalLoop=1;jettySize=auto;html=1;entryX=0.25;entryY=1;entryDx=0;entryDy=0;labelBackgroundColor=default;strokeColor=#000000;align=center;verticalAlign=middle;fontFamily=Helvetica;fontSize=11;fontColor=default;endArrow=open;endFill=0;" parent="1" source="Olr035WZX6d9rhfPIDPr-131" target="Olr035WZX6d9rhfPIDPr-96" edge="1">
          <mxGeometry relative="1" as="geometry" />
        </mxCell>
        <mxCell id="Olr035WZX6d9rhfPIDPr-131" value="" style="shape=waypoint;sketch=0;fillStyle=solid;size=6;pointerEvents=1;points=[];fillColor=none;resizable=0;rotatable=0;perimeter=centerPerimeter;snapToPoint=1;fontFamily=Helvetica;fontSize=11;fontColor=default;" parent="1" vertex="1">
          <mxGeometry x="515" y="416.87" width="20" height="20" as="geometry" />
        </mxCell>
        <mxCell id="Olr035WZX6d9rhfPIDPr-163" value="" style="edgeStyle=orthogonalEdgeStyle;rounded=0;orthogonalLoop=1;jettySize=auto;html=1;exitX=1;exitY=0.25;exitDx=0;exitDy=0;exitPerimeter=0;endArrow=none;endFill=0;" parent="1" source="Olr035WZX6d9rhfPIDPr-2" target="Olr035WZX6d9rhfPIDPr-160" edge="1">
          <mxGeometry relative="1" as="geometry">
            <mxPoint x="505" y="363" as="sourcePoint" />
            <mxPoint x="525" y="380" as="targetPoint" />
          </mxGeometry>
        </mxCell>
        <mxCell id="Olr035WZX6d9rhfPIDPr-160" value="" style="shape=waypoint;sketch=0;fillStyle=solid;size=6;pointerEvents=1;points=[];fillColor=none;resizable=0;rotatable=0;perimeter=centerPerimeter;snapToPoint=1;fontFamily=Helvetica;fontSize=11;fontColor=default;" parent="1" vertex="1">
          <mxGeometry x="535" y="352.1" width="20" height="20" as="geometry" />
        </mxCell>
        <mxCell id="Olr035WZX6d9rhfPIDPr-165" value="" style="edgeStyle=orthogonalEdgeStyle;rounded=0;orthogonalLoop=1;jettySize=auto;html=1;entryDx=0;entryDy=0;endArrow=open;endFill=0;" parent="1" target="Olr035WZX6d9rhfPIDPr-110" edge="1">
          <mxGeometry relative="1" as="geometry">
            <mxPoint x="585" y="250" as="sourcePoint" />
            <mxPoint x="619" y="307" as="targetPoint" />
            <Array as="points" />
          </mxGeometry>
        </mxCell>
        <mxCell id="Olr035WZX6d9rhfPIDPr-110" value="" style="shape=waypoint;sketch=0;fillStyle=solid;size=6;pointerEvents=1;points=[];fillColor=none;resizable=0;rotatable=0;perimeter=centerPerimeter;snapToPoint=1;" parent="1" vertex="1">
          <mxGeometry x="575" y="240" width="20" height="20" as="geometry" />
        </mxCell>
        <mxCell id="Olr035WZX6d9rhfPIDPr-166" style="edgeStyle=orthogonalEdgeStyle;shape=connector;rounded=0;orthogonalLoop=1;jettySize=auto;html=1;labelBackgroundColor=default;strokeColor=#ff0000;align=center;verticalAlign=middle;fontFamily=Helvetica;fontSize=11;fontColor=default;endArrow=open;entryX=1;entryY=0.5;entryDx=0;entryDy=0;endFill=0;" parent="1" target="Olr035WZX6d9rhfPIDPr-210" edge="1">
          <mxGeometry relative="1" as="geometry">
            <mxPoint x="1177.5" y="431.54499999999996" as="targetPoint" />
            <mxPoint x="1283" y="460" as="sourcePoint" />
            <Array as="points">
              <mxPoint x="1283" y="461" />
            </Array>
          </mxGeometry>
        </mxCell>
        <mxCell id="Olr035WZX6d9rhfPIDPr-178" value="&lt;font color=&quot;#ff0000&quot;&gt;wb_sel&lt;/font&gt;" style="edgeLabel;html=1;align=center;verticalAlign=middle;resizable=0;points=[];fontSize=11;fontFamily=Helvetica;fontColor=default;" parent="Olr035WZX6d9rhfPIDPr-166" connectable="0" vertex="1">
          <mxGeometry x="-0.3771" relative="1" as="geometry">
            <mxPoint y="17" as="offset" />
          </mxGeometry>
        </mxCell>
        <mxCell id="Olr035WZX6d9rhfPIDPr-167" style="edgeStyle=orthogonalEdgeStyle;rounded=0;orthogonalLoop=1;jettySize=auto;html=1;entryX=1;entryY=0.5;entryDx=0;entryDy=0;strokeColor=#ff0000;endArrow=open;endFill=0;" parent="1" target="Olr035WZX6d9rhfPIDPr-134" edge="1">
          <mxGeometry relative="1" as="geometry">
            <mxPoint x="-230.22000000000003" y="435.18000000000006" as="targetPoint" />
            <mxPoint x="-230" y="458.61" as="sourcePoint" />
          </mxGeometry>
        </mxCell>
        <mxCell id="Olr035WZX6d9rhfPIDPr-185" value="&lt;font color=&quot;#ff0000&quot;&gt;pc_sel&lt;/font&gt;" style="edgeLabel;html=1;align=center;verticalAlign=middle;resizable=0;points=[];fontSize=11;fontFamily=Helvetica;fontColor=default;" parent="Olr035WZX6d9rhfPIDPr-167" connectable="0" vertex="1">
          <mxGeometry x="-0.3265" y="-1" relative="1" as="geometry">
            <mxPoint x="-1" y="8" as="offset" />
          </mxGeometry>
        </mxCell>
        <mxCell id="Olr035WZX6d9rhfPIDPr-169" value="" style="edgeStyle=orthogonalEdgeStyle;rounded=0;orthogonalLoop=1;jettySize=auto;html=1;entryDx=0;entryDy=0;entryPerimeter=0;endArrow=none;endFill=0;" parent="1" source="Olr035WZX6d9rhfPIDPr-65" target="Olr035WZX6d9rhfPIDPr-170" edge="1">
          <mxGeometry relative="1" as="geometry">
            <mxPoint x="1166.4299999999998" y="402" as="targetPoint" />
            <mxPoint x="934" y="390" as="sourcePoint" />
            <Array as="points" />
          </mxGeometry>
        </mxCell>
        <mxCell id="Olr035WZX6d9rhfPIDPr-171" style="edgeStyle=orthogonalEdgeStyle;shape=connector;rounded=0;orthogonalLoop=1;jettySize=auto;html=1;entryX=0.25;entryY=1;entryDx=0;entryDy=0;labelBackgroundColor=default;strokeColor=#000000;align=center;verticalAlign=middle;fontFamily=Helvetica;fontSize=11;fontColor=default;endArrow=open;endFill=0;" parent="1" source="Olr035WZX6d9rhfPIDPr-170" target="Olr035WZX6d9rhfPIDPr-134" edge="1">
          <mxGeometry relative="1" as="geometry">
            <Array as="points">
              <mxPoint x="-285" y="300" />
              <mxPoint x="-285" y="384" />
              <mxPoint x="-265" y="384" />
            </Array>
          </mxGeometry>
        </mxCell>
        <mxCell id="Olr035WZX6d9rhfPIDPr-170" value="" style="shape=waypoint;sketch=0;fillStyle=solid;size=6;pointerEvents=1;points=[];fillColor=none;resizable=0;rotatable=0;perimeter=centerPerimeter;snapToPoint=1;fontFamily=Helvetica;fontSize=11;fontColor=default;" parent="1" vertex="1">
          <mxGeometry x="923.4299999999998" y="290" width="20" height="20" as="geometry" />
        </mxCell>
        <mxCell id="Olr035WZX6d9rhfPIDPr-172" value="&lt;font style=&quot;font-size: 8px;&quot;&gt;opr_a&lt;/font&gt;" style="text;html=1;strokeColor=none;fillColor=none;align=center;verticalAlign=middle;whiteSpace=wrap;rounded=0;" parent="1" vertex="1">
          <mxGeometry x="675" y="357.1" width="30" height="10" as="geometry" />
        </mxCell>
        <mxCell id="Olr035WZX6d9rhfPIDPr-173" value="&lt;font style=&quot;font-size: 8px;&quot;&gt;opr_b&lt;/font&gt;" style="text;html=1;strokeColor=none;fillColor=none;align=center;verticalAlign=middle;whiteSpace=wrap;rounded=0;" parent="1" vertex="1">
          <mxGeometry x="675" y="420" width="30" height="10" as="geometry" />
        </mxCell>
        <mxCell id="Olr035WZX6d9rhfPIDPr-174" value="&lt;font style=&quot;font-size: 8px;&quot;&gt;opr_res&lt;/font&gt;" style="text;html=1;strokeColor=none;fillColor=none;align=center;verticalAlign=middle;whiteSpace=wrap;rounded=0;" parent="1" vertex="1">
          <mxGeometry x="720.71" y="388.12" width="30" height="10" as="geometry" />
        </mxCell>
        <mxCell id="Olr035WZX6d9rhfPIDPr-175" value="&lt;font style=&quot;font-size: 8px;&quot;&gt;addr&lt;/font&gt;" style="text;html=1;strokeColor=none;fillColor=none;align=center;verticalAlign=middle;whiteSpace=wrap;rounded=0;" parent="1" vertex="1">
          <mxGeometry x="975.4299999999998" y="360" width="30" height="10" as="geometry" />
        </mxCell>
        <mxCell id="Olr035WZX6d9rhfPIDPr-176" value="&lt;font style=&quot;font-size: 8px;&quot;&gt;wdata&lt;/font&gt;" style="text;html=1;strokeColor=none;fillColor=none;align=center;verticalAlign=middle;whiteSpace=wrap;rounded=0;" parent="1" vertex="1">
          <mxGeometry x="975.4299999999998" y="434.05999999999995" width="30" height="10" as="geometry" />
        </mxCell>
        <mxCell id="Olr035WZX6d9rhfPIDPr-177" value="&lt;font style=&quot;font-size: 8px;&quot;&gt;rdata&lt;/font&gt;" style="text;html=1;strokeColor=none;fillColor=none;align=center;verticalAlign=middle;whiteSpace=wrap;rounded=0;" parent="1" vertex="1">
          <mxGeometry x="1035.4299999999998" y="398.1199999999999" width="30" height="10" as="geometry" />
        </mxCell>
        <mxCell id="Olr035WZX6d9rhfPIDPr-193" value="&lt;b style=&quot;font-size: 8px;&quot;&gt;&lt;font color=&quot;#0000ff&quot;&gt;CSR Register &lt;br&gt;File&lt;/font&gt;&lt;/b&gt;" style="rounded=0;whiteSpace=wrap;html=1;points=[[0,0,0,0,0],[0,0.25,0,0,0],[0,0.5,0,0,0],[0,0.75,0,0,0],[0,1,0,0,0],[0.25,0,0,0,0],[0.25,1,0,0,0],[0.5,0,0,0,0],[0.5,1,0,0,0],[0.75,0,0,0,0],[0.75,1,0,0,0],[1,0,0,0,0],[1,0.25,0,0,0],[1,0.5,0,0,0],[1,0.63,0,0,0],[1,0.75,0,0,0],[1,1,0,0,0]];fontColor=#007FFF;strokeColor=#0000FF;" parent="1" vertex="1">
          <mxGeometry x="964" y="580" width="100" height="170" as="geometry" />
        </mxCell>
        <mxCell id="Olr035WZX6d9rhfPIDPr-194" value="&lt;font style=&quot;font-size: 8px;&quot;&gt;pc&lt;/font&gt;" style="text;html=1;strokeColor=none;fillColor=none;align=center;verticalAlign=middle;whiteSpace=wrap;rounded=0;fontColor=#0000ff;" parent="1" vertex="1">
          <mxGeometry x="964" y="684" width="20" height="15" as="geometry" />
        </mxCell>
        <mxCell id="Olr035WZX6d9rhfPIDPr-195" value="&lt;font style=&quot;font-size: 8px;&quot;&gt;addr&lt;/font&gt;" style="text;html=1;strokeColor=none;fillColor=none;align=center;verticalAlign=middle;whiteSpace=wrap;rounded=0;fontColor=#0000ff;" parent="1" vertex="1">
          <mxGeometry x="964" y="607" width="27.5" height="15" as="geometry" />
        </mxCell>
        <mxCell id="Olr035WZX6d9rhfPIDPr-206" style="edgeStyle=orthogonalEdgeStyle;shape=connector;rounded=0;orthogonalLoop=1;jettySize=auto;html=1;labelBackgroundColor=default;strokeColor=#0000ff;align=center;verticalAlign=middle;fontFamily=Helvetica;fontSize=11;fontColor=default;endArrow=open;entryX=0;entryY=0.5;entryDx=0;entryDy=0;endFill=0;" parent="1" target="Olr035WZX6d9rhfPIDPr-196" edge="1">
          <mxGeometry relative="1" as="geometry">
            <mxPoint x="904" y="707" as="sourcePoint" />
            <Array as="points">
              <mxPoint x="904" y="707" />
            </Array>
          </mxGeometry>
        </mxCell>
        <mxCell id="Olr035WZX6d9rhfPIDPr-196" value="&lt;span style=&quot;font-size: 8px;&quot;&gt;interrupt/exception&lt;br&gt;&lt;/span&gt;" style="text;html=1;strokeColor=none;fillColor=none;align=center;verticalAlign=middle;whiteSpace=wrap;rounded=0;fontColor=#0000ff;" parent="1" vertex="1">
          <mxGeometry x="964" y="699" width="77.5" height="15" as="geometry" />
        </mxCell>
        <mxCell id="Olr035WZX6d9rhfPIDPr-197" value="&lt;font style=&quot;font-size: 8px;&quot;&gt;data&lt;/font&gt;" style="text;html=1;strokeColor=none;fillColor=none;align=center;verticalAlign=middle;whiteSpace=wrap;rounded=0;fontColor=#0000ff;" parent="1" vertex="1">
          <mxGeometry x="964" y="625.5" width="27.5" height="15" as="geometry" />
        </mxCell>
        <mxCell id="Olr035WZX6d9rhfPIDPr-207" style="edgeStyle=orthogonalEdgeStyle;shape=connector;rounded=0;orthogonalLoop=1;jettySize=auto;html=1;labelBackgroundColor=default;strokeColor=#0000ff;align=center;verticalAlign=middle;fontFamily=Helvetica;fontSize=11;fontColor=default;endArrow=open;exitX=0.568;exitY=0.998;exitDx=0;exitDy=0;exitPerimeter=0;endFill=0;" parent="1" source="Olr035WZX6d9rhfPIDPr-208" target="Olr035WZX6d9rhfPIDPr-199" edge="1">
          <mxGeometry relative="1" as="geometry">
            <mxPoint x="135" y="670" as="sourcePoint" />
            <Array as="points">
              <mxPoint x="155" y="574" />
              <mxPoint x="155" y="900" />
              <mxPoint x="880" y="900" />
              <mxPoint x="880" y="721" />
            </Array>
          </mxGeometry>
        </mxCell>
        <mxCell id="Olr035WZX6d9rhfPIDPr-199" value="&lt;font style=&quot;font-size: 8px;&quot;&gt;inst&lt;/font&gt;" style="text;html=1;strokeColor=none;fillColor=none;align=center;verticalAlign=middle;whiteSpace=wrap;rounded=0;fontColor=#0000ff;" parent="1" vertex="1">
          <mxGeometry x="964" y="714" width="22.5" height="15" as="geometry" />
        </mxCell>
        <mxCell id="Olr035WZX6d9rhfPIDPr-200" value="&lt;font style=&quot;font-size: 8px;&quot;&gt;rdata&lt;/font&gt;" style="text;html=1;strokeColor=none;fillColor=none;align=center;verticalAlign=middle;whiteSpace=wrap;rounded=0;fontColor=#0000ff;" parent="1" vertex="1">
          <mxGeometry x="1036.5" y="635" width="27.5" height="15" as="geometry" />
        </mxCell>
        <mxCell id="Olr035WZX6d9rhfPIDPr-209" style="edgeStyle=orthogonalEdgeStyle;shape=connector;rounded=0;orthogonalLoop=1;jettySize=auto;html=1;labelBackgroundColor=default;strokeColor=#0000ff;align=center;verticalAlign=middle;fontFamily=Helvetica;fontSize=11;fontColor=default;endArrow=open;entryX=0.75;entryY=1;entryDx=0;entryDy=0;endFill=0;exitX=1;exitY=0.75;exitDx=0;exitDy=0;" parent="1" source="Olr035WZX6d9rhfPIDPr-201" target="Olr035WZX6d9rhfPIDPr-232" edge="1">
          <mxGeometry relative="1" as="geometry">
            <mxPoint x="-193.5999999999999" y="436.86999999999966" as="targetPoint" />
            <Array as="points">
              <mxPoint x="1064" y="681" />
              <mxPoint x="1370" y="681" />
              <mxPoint x="1370" y="931" />
              <mxPoint x="-197" y="931" />
              <mxPoint x="-197" y="436" />
            </Array>
            <mxPoint x="1041.5000000000005" y="680.78" as="sourcePoint" />
          </mxGeometry>
        </mxCell>
        <mxCell id="Olr035WZX6d9rhfPIDPr-201" value="&lt;font style=&quot;font-size: 8px;&quot;&gt;epc&lt;/font&gt;" style="text;html=1;strokeColor=none;fillColor=none;align=center;verticalAlign=middle;whiteSpace=wrap;rounded=0;fontColor=#0000ff;" parent="1" vertex="1">
          <mxGeometry x="1036.5" y="672.5" width="27.5" height="15" as="geometry" />
        </mxCell>
        <mxCell id="Olr035WZX6d9rhfPIDPr-203" style="edgeStyle=orthogonalEdgeStyle;shape=connector;rounded=0;orthogonalLoop=1;jettySize=auto;html=1;labelBackgroundColor=default;strokeColor=#0000ff;align=center;verticalAlign=middle;fontFamily=Helvetica;fontSize=11;fontColor=default;endArrow=open;entryX=0;entryY=0.5;entryDx=0;entryDy=0;endFill=0;" parent="1" source="Olr035WZX6d9rhfPIDPr-202" target="Olr035WZX6d9rhfPIDPr-194" edge="1">
          <mxGeometry relative="1" as="geometry">
            <mxPoint x="934" y="630" as="targetPoint" />
            <Array as="points">
              <mxPoint x="904" y="692" />
            </Array>
          </mxGeometry>
        </mxCell>
        <mxCell id="Olr035WZX6d9rhfPIDPr-204" value="" style="edgeStyle=orthogonalEdgeStyle;rounded=0;orthogonalLoop=1;jettySize=auto;html=1;entryDx=0;entryDy=0;endArrow=none;endFill=0;" parent="1" source="Olr035WZX6d9rhfPIDPr-110" target="Olr035WZX6d9rhfPIDPr-202" edge="1">
          <mxGeometry relative="1" as="geometry">
            <mxPoint x="585" y="250" as="sourcePoint" />
            <mxPoint x="900" y="250" as="targetPoint" />
            <Array as="points" />
          </mxGeometry>
        </mxCell>
        <mxCell id="Olr035WZX6d9rhfPIDPr-202" value="" style="shape=waypoint;sketch=0;fillStyle=solid;size=6;pointerEvents=1;points=[];fillColor=none;resizable=0;rotatable=0;perimeter=centerPerimeter;snapToPoint=1;fontFamily=Helvetica;fontSize=11;fontColor=default;strokeColor=#0000FF;" parent="1" vertex="1">
          <mxGeometry x="894" y="240" width="20" height="20" as="geometry" />
        </mxCell>
        <mxCell id="Olr035WZX6d9rhfPIDPr-208" value="" style="shape=waypoint;sketch=0;fillStyle=solid;size=6;pointerEvents=1;points=[];fillColor=none;resizable=0;rotatable=0;perimeter=centerPerimeter;snapToPoint=1;fontFamily=Helvetica;fontSize=11;fontColor=default;" parent="1" vertex="1">
          <mxGeometry x="195" y="564" width="20" height="20" as="geometry" />
        </mxCell>
        <mxCell id="Olr035WZX6d9rhfPIDPr-210" value="" style="shape=trapezoid;perimeter=trapezoidPerimeter;whiteSpace=wrap;html=1;fixedSize=1;rotation=90;size=13.269999999999982;points=[[0,0,0,0,0],[0,0.25,0,0,0],[0,0.5,0,0,0],[0,0.75,0,0,0],[0,1,0,0,0],[0.2,1,0,0,0],[0.25,0,0,0,0],[0.4,1,0,0,0],[0.5,0,0,0,0],[0.6,1,0,0,0],[0.75,0,0,0,0],[0.8,0.64,0,0,8],[1,0,0,0,0],[1,0.25,0,0,0],[1,0.5,0,0,0],[1,0.75,0,0,0],[1,1,0,0,0]];" parent="1" vertex="1">
          <mxGeometry x="1248" y="385.04999999999995" width="70" height="20.95" as="geometry" />
        </mxCell>
        <mxCell id="Olr035WZX6d9rhfPIDPr-212" style="edgeStyle=orthogonalEdgeStyle;shape=connector;rounded=0;orthogonalLoop=1;jettySize=auto;html=1;entryX=0.8;entryY=0.64;entryDx=0;entryDy=8;entryPerimeter=0;labelBackgroundColor=default;strokeColor=#0000ff;align=center;verticalAlign=middle;fontFamily=Helvetica;fontSize=11;fontColor=default;endArrow=open;endFill=0;" parent="1" source="Olr035WZX6d9rhfPIDPr-200" target="Olr035WZX6d9rhfPIDPr-210" edge="1">
          <mxGeometry relative="1" as="geometry" />
        </mxCell>
        <mxCell id="Olr035WZX6d9rhfPIDPr-216" value="" style="endArrow=open;html=1;rounded=0;labelBackgroundColor=default;strokeColor=#ff0000;align=center;verticalAlign=middle;fontFamily=Helvetica;fontSize=11;fontColor=default;shape=connector;entryX=0;entryY=0.5;entryDx=0;entryDy=0;endFill=0;" parent="1" target="Olr035WZX6d9rhfPIDPr-218" edge="1">
          <mxGeometry width="50" height="50" relative="1" as="geometry">
            <mxPoint x="355" y="679.67" as="sourcePoint" />
            <mxPoint x="435" y="680" as="targetPoint" />
          </mxGeometry>
        </mxCell>
        <mxCell id="Olr035WZX6d9rhfPIDPr-218" value="&lt;font color=&quot;#ff0000&quot;&gt;pc_sel&lt;/font&gt;" style="text;html=1;strokeColor=none;fillColor=none;align=center;verticalAlign=middle;whiteSpace=wrap;rounded=0;fontSize=11;fontFamily=Helvetica;fontColor=default;" parent="1" vertex="1">
          <mxGeometry x="385" y="665" width="40" height="30" as="geometry" />
        </mxCell>
        <mxCell id="Olr035WZX6d9rhfPIDPr-219" value="" style="endArrow=open;html=1;rounded=0;labelBackgroundColor=default;strokeColor=#ff0000;align=center;verticalAlign=middle;fontFamily=Helvetica;fontSize=11;fontColor=default;shape=connector;entryX=0;entryY=0.5;entryDx=0;entryDy=0;endFill=0;" parent="1" target="Olr035WZX6d9rhfPIDPr-220" edge="1">
          <mxGeometry width="50" height="50" relative="1" as="geometry">
            <mxPoint x="355" y="702.17" as="sourcePoint" />
            <mxPoint x="435" y="702.5" as="targetPoint" />
          </mxGeometry>
        </mxCell>
        <mxCell id="Olr035WZX6d9rhfPIDPr-220" value="&lt;font color=&quot;#ff0000&quot;&gt;opr_a_sel&lt;/font&gt;" style="text;html=1;strokeColor=none;fillColor=none;align=center;verticalAlign=middle;whiteSpace=wrap;rounded=0;fontSize=11;fontFamily=Helvetica;fontColor=default;" parent="1" vertex="1">
          <mxGeometry x="385" y="687.5" width="60" height="30" as="geometry" />
        </mxCell>
        <mxCell id="Olr035WZX6d9rhfPIDPr-221" value="" style="endArrow=open;html=1;rounded=0;labelBackgroundColor=default;strokeColor=#ff0000;align=center;verticalAlign=middle;fontFamily=Helvetica;fontSize=11;fontColor=default;shape=connector;entryX=0;entryY=0.5;entryDx=0;entryDy=0;endFill=0;" parent="1" target="Olr035WZX6d9rhfPIDPr-222" edge="1">
          <mxGeometry width="50" height="50" relative="1" as="geometry">
            <mxPoint x="355" y="723.67" as="sourcePoint" />
            <mxPoint x="435" y="724" as="targetPoint" />
          </mxGeometry>
        </mxCell>
        <mxCell id="Olr035WZX6d9rhfPIDPr-222" value="&lt;font color=&quot;#ff0000&quot;&gt;opr_b_sel&lt;/font&gt;" style="text;html=1;strokeColor=none;fillColor=none;align=center;verticalAlign=middle;whiteSpace=wrap;rounded=0;fontSize=11;fontFamily=Helvetica;fontColor=default;" parent="1" vertex="1">
          <mxGeometry x="385" y="709" width="60" height="30" as="geometry" />
        </mxCell>
        <mxCell id="Olr035WZX6d9rhfPIDPr-223" value="" style="endArrow=open;html=1;rounded=0;labelBackgroundColor=default;strokeColor=#ff0000;align=center;verticalAlign=middle;fontFamily=Helvetica;fontSize=11;fontColor=default;shape=connector;entryX=0;entryY=0.5;entryDx=0;entryDy=0;endFill=0;" parent="1" target="Olr035WZX6d9rhfPIDPr-224" edge="1">
          <mxGeometry width="50" height="50" relative="1" as="geometry">
            <mxPoint x="355" y="743.67" as="sourcePoint" />
            <mxPoint x="435" y="744" as="targetPoint" />
          </mxGeometry>
        </mxCell>
        <mxCell id="Olr035WZX6d9rhfPIDPr-224" value="&lt;font color=&quot;#ff0000&quot;&gt;wb_sel&lt;/font&gt;" style="text;html=1;strokeColor=none;fillColor=none;align=center;verticalAlign=middle;whiteSpace=wrap;rounded=0;fontSize=11;fontFamily=Helvetica;fontColor=default;" parent="1" vertex="1">
          <mxGeometry x="385" y="729" width="50" height="30" as="geometry" />
        </mxCell>
        <mxCell id="Olr035WZX6d9rhfPIDPr-225" value="" style="endArrow=open;html=1;rounded=0;labelBackgroundColor=default;strokeColor=#ff0000;align=center;verticalAlign=middle;fontFamily=Helvetica;fontSize=11;fontColor=default;shape=connector;entryX=0;entryY=0.5;entryDx=0;entryDy=0;endFill=0;" parent="1" target="Olr035WZX6d9rhfPIDPr-226" edge="1">
          <mxGeometry width="50" height="50" relative="1" as="geometry">
            <mxPoint x="355" y="764.67" as="sourcePoint" />
            <mxPoint x="435" y="765" as="targetPoint" />
          </mxGeometry>
        </mxCell>
        <mxCell id="Olr035WZX6d9rhfPIDPr-226" value="&lt;font color=&quot;#ff0000&quot;&gt;rf_en&lt;/font&gt;" style="text;html=1;strokeColor=none;fillColor=none;align=center;verticalAlign=middle;whiteSpace=wrap;rounded=0;fontSize=11;fontFamily=Helvetica;fontColor=default;" parent="1" vertex="1">
          <mxGeometry x="385" y="750" width="40" height="30" as="geometry" />
        </mxCell>
        <mxCell id="Olr035WZX6d9rhfPIDPr-228" value="" style="endArrow=open;html=1;rounded=0;labelBackgroundColor=default;strokeColor=#ff0000;align=center;verticalAlign=middle;fontFamily=Helvetica;fontSize=11;fontColor=default;shape=connector;entryX=0;entryY=0.5;entryDx=0;entryDy=0;endFill=0;" parent="1" target="Olr035WZX6d9rhfPIDPr-229" edge="1">
          <mxGeometry width="50" height="50" relative="1" as="geometry">
            <mxPoint x="355" y="784.67" as="sourcePoint" />
            <mxPoint x="435" y="785" as="targetPoint" />
          </mxGeometry>
        </mxCell>
        <mxCell id="Olr035WZX6d9rhfPIDPr-229" value="&lt;font color=&quot;#ff0000&quot;&gt;alu_op&lt;/font&gt;" style="text;html=1;strokeColor=none;fillColor=none;align=center;verticalAlign=middle;whiteSpace=wrap;rounded=0;fontSize=11;fontFamily=Helvetica;fontColor=default;" parent="1" vertex="1">
          <mxGeometry x="385" y="770" width="50" height="30" as="geometry" />
        </mxCell>
        <mxCell id="Olr035WZX6d9rhfPIDPr-230" value="" style="endArrow=open;html=1;rounded=0;labelBackgroundColor=default;strokeColor=#ff0000;align=center;verticalAlign=middle;fontFamily=Helvetica;fontSize=11;fontColor=default;shape=connector;entryX=0;entryY=0.5;entryDx=0;entryDy=0;endFill=0;" parent="1" target="Olr035WZX6d9rhfPIDPr-231" edge="1">
          <mxGeometry width="50" height="50" relative="1" as="geometry">
            <mxPoint x="355" y="804.67" as="sourcePoint" />
            <mxPoint x="435" y="805" as="targetPoint" />
          </mxGeometry>
        </mxCell>
        <mxCell id="Olr035WZX6d9rhfPIDPr-231" value="&lt;font color=&quot;#ff0000&quot;&gt;imm_type&lt;/font&gt;" style="text;html=1;strokeColor=none;fillColor=none;align=center;verticalAlign=middle;whiteSpace=wrap;rounded=0;fontSize=11;fontFamily=Helvetica;fontColor=default;" parent="1" vertex="1">
          <mxGeometry x="385" y="790" width="60" height="30" as="geometry" />
        </mxCell>
        <mxCell id="Olr035WZX6d9rhfPIDPr-233" style="edgeStyle=orthogonalEdgeStyle;shape=connector;rounded=0;orthogonalLoop=1;jettySize=auto;html=1;entryX=0;entryY=0.75;entryDx=0;entryDy=0;labelBackgroundColor=default;strokeColor=#000000;align=center;verticalAlign=middle;fontFamily=Helvetica;fontSize=11;fontColor=default;endArrow=open;exitX=0.5;exitY=0;exitDx=0;exitDy=0;endFill=0;" parent="1" source="Olr035WZX6d9rhfPIDPr-232" target="Olr035WZX6d9rhfPIDPr-143" edge="1">
          <mxGeometry relative="1" as="geometry">
            <Array as="points">
              <mxPoint x="-130" y="419" />
              <mxPoint x="-130" y="404" />
            </Array>
          </mxGeometry>
        </mxCell>
        <mxCell id="Olr035WZX6d9rhfPIDPr-235" style="edgeStyle=orthogonalEdgeStyle;shape=connector;rounded=0;orthogonalLoop=1;jettySize=auto;html=1;exitX=1;exitY=0.5;exitDx=0;exitDy=0;labelBackgroundColor=default;strokeColor=#0000ff;align=center;verticalAlign=middle;fontFamily=Helvetica;fontSize=11;fontColor=default;endArrow=open;entryX=1;entryY=0.5;entryDx=0;entryDy=0;endFill=0;" parent="1" target="Olr035WZX6d9rhfPIDPr-232" edge="1">
          <mxGeometry relative="1" as="geometry">
            <mxPoint x="-159.72727272727275" y="480" as="sourcePoint" />
          </mxGeometry>
        </mxCell>
        <mxCell id="Olr035WZX6d9rhfPIDPr-232" value="" style="shape=trapezoid;perimeter=trapezoidPerimeter;whiteSpace=wrap;html=1;fixedSize=1;rotation=90;size=13.269999999999982;" parent="1" vertex="1">
          <mxGeometry x="-195" y="407.4899999999999" width="70" height="22.2" as="geometry" />
        </mxCell>
        <mxCell id="Olr035WZX6d9rhfPIDPr-236" value="&lt;font color=&quot;#0000ff&quot;&gt;interrupt&lt;/font&gt;" style="text;html=1;align=center;verticalAlign=middle;resizable=0;points=[];autosize=1;strokeColor=none;fillColor=none;fontSize=11;fontFamily=Helvetica;fontColor=default;" parent="1" vertex="1">
          <mxGeometry x="-190" y="469.5" width="60" height="30" as="geometry" />
        </mxCell>
        <mxCell id="Olr035WZX6d9rhfPIDPr-239" value="&lt;b&gt;&lt;font style=&quot;font-size: 8px;&quot;&gt;ALU&lt;/font&gt;&lt;/b&gt;" style="text;html=1;strokeColor=none;fillColor=none;align=center;verticalAlign=middle;whiteSpace=wrap;rounded=0;fontSize=11;fontFamily=Helvetica;fontColor=default;" parent="1" vertex="1">
          <mxGeometry x="679" y="378.12" width="60" height="30" as="geometry" />
        </mxCell>
        <mxCell id="Olr035WZX6d9rhfPIDPr-242" style="edgeStyle=orthogonalEdgeStyle;shape=connector;rounded=0;orthogonalLoop=1;jettySize=auto;html=1;entryX=0;entryY=0.5;entryDx=0;entryDy=0;labelBackgroundColor=default;strokeColor=#0000ff;align=center;verticalAlign=middle;fontFamily=Helvetica;fontSize=11;fontColor=default;endArrow=open;endFill=0;" parent="1" target="Olr035WZX6d9rhfPIDPr-197" edge="1" source="Olr035WZX6d9rhfPIDPr-240">
          <mxGeometry relative="1" as="geometry">
            <mxPoint x="780" y="510" as="sourcePoint" />
            <Array as="points">
              <mxPoint x="780" y="510" />
              <mxPoint x="780" y="633" />
            </Array>
          </mxGeometry>
        </mxCell>
        <mxCell id="sBOxtMemxzJCtZdBsG6Z-3" value="" style="edgeStyle=orthogonalEdgeStyle;shape=connector;rounded=0;orthogonalLoop=1;jettySize=auto;html=1;entryDx=0;entryDy=0;labelBackgroundColor=default;strokeColor=#0000ff;align=center;verticalAlign=middle;fontFamily=Helvetica;fontSize=11;fontColor=default;endArrow=open;endFill=0;" edge="1" parent="1" target="Olr035WZX6d9rhfPIDPr-240">
          <mxGeometry relative="1" as="geometry">
            <mxPoint x="780" y="510" as="sourcePoint" />
            <Array as="points" />
            <mxPoint x="964" y="633" as="targetPoint" />
          </mxGeometry>
        </mxCell>
        <mxCell id="Olr035WZX6d9rhfPIDPr-240" value="" style="shape=waypoint;sketch=0;fillStyle=solid;size=6;pointerEvents=1;points=[];fillColor=none;resizable=0;rotatable=0;perimeter=centerPerimeter;snapToPoint=1;fontFamily=Helvetica;fontSize=11;fontColor=default;strokeColor=#0000FF;" parent="1" vertex="1">
          <mxGeometry x="770" y="500" width="20" height="20" as="geometry" />
        </mxCell>
        <mxCell id="sBOxtMemxzJCtZdBsG6Z-8" value="" style="edgeStyle=orthogonalEdgeStyle;rounded=0;orthogonalLoop=1;jettySize=auto;html=1;endArrow=none;endFill=0;" edge="1" parent="1" source="Olr035WZX6d9rhfPIDPr-110" target="sBOxtMemxzJCtZdBsG6Z-6">
          <mxGeometry relative="1" as="geometry">
            <mxPoint x="585" y="250" as="sourcePoint" />
            <mxPoint x="5" y="403" as="targetPoint" />
            <Array as="points" />
          </mxGeometry>
        </mxCell>
        <mxCell id="sBOxtMemxzJCtZdBsG6Z-9" value="Wdata" style="rounded=0;whiteSpace=wrap;html=1;" vertex="1" parent="1">
          <mxGeometry x="805" y="427.1" width="45" height="40.94" as="geometry" />
        </mxCell>
        <mxCell id="sBOxtMemxzJCtZdBsG6Z-4" value="INST" style="rounded=0;whiteSpace=wrap;html=1;" vertex="1" parent="1">
          <mxGeometry x="150" y="371" width="45" height="60" as="geometry" />
        </mxCell>
        <mxCell id="sBOxtMemxzJCtZdBsG6Z-17" value="" style="endArrow=none;dashed=1;html=1;rounded=0;" edge="1" parent="1">
          <mxGeometry width="50" height="50" relative="1" as="geometry">
            <mxPoint x="170" y="980" as="sourcePoint" />
            <mxPoint x="170" y="120" as="targetPoint" />
          </mxGeometry>
        </mxCell>
        <mxCell id="sBOxtMemxzJCtZdBsG6Z-10" value="OP_res" style="rounded=0;whiteSpace=wrap;html=1;" vertex="1" parent="1">
          <mxGeometry x="805" y="368.12" width="45" height="50" as="geometry" />
        </mxCell>
        <mxCell id="sBOxtMemxzJCtZdBsG6Z-12" value="WB" style="rounded=0;whiteSpace=wrap;html=1;" vertex="1" parent="1">
          <mxGeometry x="1310" y="372.1" width="40" height="50" as="geometry" />
        </mxCell>
        <mxCell id="sBOxtMemxzJCtZdBsG6Z-15" value="EPC" style="rounded=0;whiteSpace=wrap;html=1;" vertex="1" parent="1">
          <mxGeometry x="1300" y="659" width="40" height="50" as="geometry" />
        </mxCell>
        <mxCell id="sBOxtMemxzJCtZdBsG6Z-18" value="" style="endArrow=none;dashed=1;html=1;rounded=0;" edge="1" parent="1">
          <mxGeometry width="50" height="50" relative="1" as="geometry">
            <mxPoint x="830" y="1010" as="sourcePoint" />
            <mxPoint x="830" y="130" as="targetPoint" />
          </mxGeometry>
        </mxCell>
        <mxCell id="sBOxtMemxzJCtZdBsG6Z-19" value="" style="endArrow=none;dashed=1;html=1;rounded=0;" edge="1" parent="1">
          <mxGeometry width="50" height="50" relative="1" as="geometry">
            <mxPoint x="1320" y="1000" as="sourcePoint" />
            <mxPoint x="1330" y="140" as="targetPoint" />
          </mxGeometry>
        </mxCell>
        <mxCell id="sBOxtMemxzJCtZdBsG6Z-6" value="" style="rounded=0;whiteSpace=wrap;html=1;" vertex="1" parent="1">
          <mxGeometry x="150" y="220" width="50" height="60" as="geometry" />
        </mxCell>
        <mxCell id="sBOxtMemxzJCtZdBsG6Z-23" value="PC_OUT" style="text;strokeColor=none;fillColor=none;align=left;verticalAlign=middle;spacingLeft=4;spacingRight=4;overflow=hidden;points=[[0,0.5],[1,0.5]];portConstraint=eastwest;rotatable=0;whiteSpace=wrap;html=1;" vertex="1" parent="1">
          <mxGeometry x="149" y="235" width="66" height="30" as="geometry" />
        </mxCell>
        <mxCell id="sBOxtMemxzJCtZdBsG6Z-24" value="&lt;font style=&quot;font-size: 23px;&quot;&gt;Instruction fetch&lt;/font&gt;" style="text;strokeColor=none;fillColor=none;align=left;verticalAlign=middle;spacingLeft=4;spacingRight=4;overflow=hidden;points=[[0,0.5],[1,0.5]];portConstraint=eastwest;rotatable=0;whiteSpace=wrap;html=1;" vertex="1" parent="1">
          <mxGeometry x="-81" y="164" width="140" height="70" as="geometry" />
        </mxCell>
        <mxCell id="sBOxtMemxzJCtZdBsG6Z-25" value="&lt;span style=&quot;font-size: 23px;&quot;&gt;Execute and decode&lt;/span&gt;" style="text;strokeColor=none;fillColor=none;align=left;verticalAlign=middle;spacingLeft=4;spacingRight=4;overflow=hidden;points=[[0,0.5],[1,0.5]];portConstraint=eastwest;rotatable=0;whiteSpace=wrap;html=1;" vertex="1" parent="1">
          <mxGeometry x="544" y="164" width="140" height="70" as="geometry" />
        </mxCell>
        <mxCell id="sBOxtMemxzJCtZdBsG6Z-26" value="&lt;span style=&quot;font-size: 23px;&quot;&gt;Data-memory and writeback&lt;/span&gt;" style="text;strokeColor=none;fillColor=none;align=left;verticalAlign=middle;spacingLeft=4;spacingRight=4;overflow=hidden;points=[[0,0.5],[1,0.5]];portConstraint=eastwest;rotatable=0;whiteSpace=wrap;html=1;" vertex="1" parent="1">
          <mxGeometry x="1090.5" y="154" width="168.5" height="60" as="geometry" />
        </mxCell>
        <mxCell id="sBOxtMemxzJCtZdBsG6Z-28" value="&lt;font style=&quot;font-size: 36px;&quot;&gt;3-Stage pipeline&lt;/font&gt;" style="text;strokeColor=none;fillColor=none;align=center;verticalAlign=middle;spacingLeft=4;spacingRight=4;overflow=hidden;points=[[0,0.5],[1,0.5]];portConstraint=eastwest;rotatable=0;whiteSpace=wrap;html=1;" vertex="1" parent="1">
          <mxGeometry x="350" y="20" width="400" height="70" as="geometry" />
        </mxCell>
      </root>
    </mxGraphModel>
  </diagram>
  <diagram id="h2mQeBntexa-fBViPr9q" name="pipelined">
    <mxGraphModel grid="1" page="1" gridSize="10" guides="1" tooltips="1" connect="1" arrows="1" fold="1" pageScale="1" pageWidth="850" pageHeight="1100" math="0" shadow="0">
      <root>
        <mxCell id="0" />
        <mxCell id="1" parent="0" />
        <mxCell id="qsocSsxCrIzBuUTK78k4-1" style="edgeStyle=orthogonalEdgeStyle;shape=connector;rounded=0;orthogonalLoop=1;jettySize=auto;html=1;exitX=0.5;exitY=1;exitDx=0;exitDy=0;exitPerimeter=0;labelBackgroundColor=default;strokeColor=#ff0000;align=center;verticalAlign=middle;fontFamily=Helvetica;fontSize=11;fontColor=default;endArrow=open;entryX=0.5;entryY=1;entryDx=0;entryDy=0;entryPerimeter=0;endFill=0;" edge="1" parent="1" target="qsocSsxCrIzBuUTK78k4-3">
          <mxGeometry relative="1" as="geometry">
            <mxPoint x="294.39" y="-163" as="sourcePoint" />
          </mxGeometry>
        </mxCell>
        <mxCell id="qsocSsxCrIzBuUTK78k4-2" value="&lt;font color=&quot;#ff0000&quot;&gt;rf_en&lt;/font&gt;" style="edgeLabel;html=1;align=center;verticalAlign=middle;resizable=0;points=[];fontSize=11;fontFamily=Helvetica;fontColor=default;" connectable="0" vertex="1" parent="qsocSsxCrIzBuUTK78k4-1">
          <mxGeometry x="-0.7395" relative="1" as="geometry">
            <mxPoint y="6" as="offset" />
          </mxGeometry>
        </mxCell>
        <mxCell id="qsocSsxCrIzBuUTK78k4-3" value="&lt;b style=&quot;font-size: 8px;&quot;&gt;Register &lt;br&gt;File&lt;/b&gt;" style="rounded=0;whiteSpace=wrap;html=1;points=[[0,0,0,0,0],[0,0.25,0,0,0],[0,0.5,0,0,0],[0,0.75,0,0,0],[0,1,0,0,0],[0.25,0,0,0,0],[0.25,1,0,0,0],[0.5,0,0,0,0],[0.5,1,0,0,0],[0.75,0,0,0,0],[0.75,1,0,0,0],[1,0,0,0,0],[1,0.25,0,0,0],[1,0.5,0,0,0],[1,0.63,0,0,0],[1,0.75,0,0,0],[1,1,0,0,0]];" vertex="1" parent="1">
          <mxGeometry x="244.89" y="-363" width="100" height="170" as="geometry" />
        </mxCell>
        <mxCell id="qsocSsxCrIzBuUTK78k4-4" value="&lt;b style=&quot;font-size: 8px;&quot;&gt;Instruction &lt;br&gt;Memory&lt;/b&gt;" style="rounded=0;whiteSpace=wrap;html=1;" vertex="1" parent="1">
          <mxGeometry x="-195.11" y="-188" width="110" height="165" as="geometry" />
        </mxCell>
        <mxCell id="qsocSsxCrIzBuUTK78k4-5" value="&lt;font style=&quot;font-size: 8px;&quot;&gt;&lt;b&gt;Instruction&lt;br&gt;Decoder&lt;/b&gt;&lt;/font&gt;" style="rounded=0;whiteSpace=wrap;html=1;" vertex="1" parent="1">
          <mxGeometry x="74.89" y="-353" width="120" height="140" as="geometry" />
        </mxCell>
        <mxCell id="qsocSsxCrIzBuUTK78k4-7" value="&lt;font style=&quot;font-size: 8px;&quot;&gt;rs1&lt;/font&gt;" style="text;html=1;strokeColor=none;fillColor=none;align=center;verticalAlign=middle;whiteSpace=wrap;rounded=0;" vertex="1" parent="1">
          <mxGeometry x="244.89" y="-343" width="20" height="10" as="geometry" />
        </mxCell>
        <mxCell id="qsocSsxCrIzBuUTK78k4-8" value="&lt;font style=&quot;font-size: 8px;&quot;&gt;rs2&lt;/font&gt;" style="text;html=1;strokeColor=none;fillColor=none;align=center;verticalAlign=middle;whiteSpace=wrap;rounded=0;" vertex="1" parent="1">
          <mxGeometry x="244.89" y="-318" width="20" as="geometry" />
        </mxCell>
        <mxCell id="qsocSsxCrIzBuUTK78k4-9" value="&lt;font style=&quot;font-size: 8px;&quot;&gt;rd&lt;/font&gt;" style="text;html=1;strokeColor=none;fillColor=none;align=center;verticalAlign=middle;whiteSpace=wrap;rounded=0;" vertex="1" parent="1">
          <mxGeometry x="244.89" y="-303" width="20" height="10" as="geometry" />
        </mxCell>
        <mxCell id="qsocSsxCrIzBuUTK78k4-10" value="&lt;font style=&quot;font-size: 8px;&quot;&gt;wdata&lt;/font&gt;" style="text;html=1;strokeColor=none;fillColor=none;align=center;verticalAlign=middle;whiteSpace=wrap;rounded=0;" vertex="1" parent="1">
          <mxGeometry x="244.89" y="-241.89999999999998" width="30" height="10" as="geometry" />
        </mxCell>
        <mxCell id="qsocSsxCrIzBuUTK78k4-11" value="" style="endArrow=open;html=1;rounded=0;entryX=0;entryY=0.5;entryDx=0;entryDy=0;exitX=1;exitY=0.5;exitDx=0;exitDy=0;endFill=0;" edge="1" parent="1" source="qsocSsxCrIzBuUTK78k4-14" target="qsocSsxCrIzBuUTK78k4-7">
          <mxGeometry width="50" height="50" relative="1" as="geometry">
            <mxPoint x="194.89" y="-333" as="sourcePoint" />
            <mxPoint x="244.89" y="-383" as="targetPoint" />
          </mxGeometry>
        </mxCell>
        <mxCell id="qsocSsxCrIzBuUTK78k4-12" value="" style="endArrow=open;html=1;rounded=0;entryX=-0.004;entryY=0;entryDx=0;entryDy=0;entryPerimeter=0;exitX=1;exitY=0.5;exitDx=0;exitDy=0;endFill=0;" edge="1" parent="1" source="qsocSsxCrIzBuUTK78k4-16" target="qsocSsxCrIzBuUTK78k4-8">
          <mxGeometry width="50" height="50" relative="1" as="geometry">
            <mxPoint x="194.89" y="-318" as="sourcePoint" />
            <mxPoint x="254.89" y="-338" as="targetPoint" />
          </mxGeometry>
        </mxCell>
        <mxCell id="qsocSsxCrIzBuUTK78k4-13" value="" style="endArrow=open;html=1;rounded=0;exitX=1;exitY=0.5;exitDx=0;exitDy=0;entryX=0;entryY=0.5;entryDx=0;entryDy=0;endFill=0;" edge="1" parent="1" source="qsocSsxCrIzBuUTK78k4-15" target="qsocSsxCrIzBuUTK78k4-9">
          <mxGeometry width="50" height="50" relative="1" as="geometry">
            <mxPoint x="214.89" y="-308" as="sourcePoint" />
            <mxPoint x="264.89" y="-358" as="targetPoint" />
          </mxGeometry>
        </mxCell>
        <mxCell id="qsocSsxCrIzBuUTK78k4-14" value="&lt;font style=&quot;font-size: 8px;&quot;&gt;rs1&lt;/font&gt;" style="text;html=1;strokeColor=none;fillColor=none;align=center;verticalAlign=middle;whiteSpace=wrap;rounded=0;" vertex="1" parent="1">
          <mxGeometry x="174.89" y="-343" width="20" height="10" as="geometry" />
        </mxCell>
        <mxCell id="qsocSsxCrIzBuUTK78k4-15" value="&lt;font style=&quot;font-size: 8px;&quot;&gt;rd&lt;/font&gt;" style="text;html=1;strokeColor=none;fillColor=none;align=center;verticalAlign=middle;whiteSpace=wrap;rounded=0;" vertex="1" parent="1">
          <mxGeometry x="174.89" y="-303" width="20" height="10" as="geometry" />
        </mxCell>
        <mxCell id="qsocSsxCrIzBuUTK78k4-16" value="&lt;font style=&quot;font-size: 8px;&quot;&gt;rs2&lt;/font&gt;" style="text;html=1;strokeColor=none;fillColor=none;align=center;verticalAlign=middle;whiteSpace=wrap;rounded=0;" vertex="1" parent="1">
          <mxGeometry x="174.89" y="-323" width="20" height="10" as="geometry" />
        </mxCell>
        <mxCell id="qsocSsxCrIzBuUTK78k4-17" value="&lt;font style=&quot;font-size: 8px;&quot;&gt;inst&lt;/font&gt;" style="text;html=1;strokeColor=none;fillColor=none;align=center;verticalAlign=middle;whiteSpace=wrap;rounded=0;" vertex="1" parent="1">
          <mxGeometry x="74.89" y="-293" width="20" height="10" as="geometry" />
        </mxCell>
        <mxCell id="qsocSsxCrIzBuUTK78k4-154" style="edgeStyle=orthogonalEdgeStyle;rounded=0;orthogonalLoop=1;jettySize=auto;html=1;entryX=0;entryY=0.5;entryDx=0;entryDy=0;endArrow=open;endFill=0;" edge="1" parent="1" source="qsocSsxCrIzBuUTK78k4-18" target="qsocSsxCrIzBuUTK78k4-152">
          <mxGeometry relative="1" as="geometry" />
        </mxCell>
        <mxCell id="qsocSsxCrIzBuUTK78k4-18" value="&lt;font style=&quot;font-size: 8px;&quot;&gt;inst&lt;/font&gt;" style="text;html=1;strokeColor=none;fillColor=none;align=center;verticalAlign=middle;whiteSpace=wrap;rounded=0;" vertex="1" parent="1">
          <mxGeometry x="-105.11" y="-118" width="20" height="10" as="geometry" />
        </mxCell>
        <mxCell id="qsocSsxCrIzBuUTK78k4-19" style="edgeStyle=orthogonalEdgeStyle;rounded=0;orthogonalLoop=1;jettySize=auto;html=1;entryX=0.5;entryY=0;entryDx=0;entryDy=0;endArrow=open;endFill=0;" edge="1" parent="1" source="qsocSsxCrIzBuUTK78k4-20" target="qsocSsxCrIzBuUTK78k4-28">
          <mxGeometry relative="1" as="geometry">
            <mxPoint x="214.89" y="17.919540229885" as="targetPoint" />
            <Array as="points">
              <mxPoint x="99.89" y="-13" />
              <mxPoint x="99.89" y="-13" />
            </Array>
          </mxGeometry>
        </mxCell>
        <mxCell id="qsocSsxCrIzBuUTK78k4-20" value="&lt;font style=&quot;font-size: 8px;&quot;&gt;opcode&lt;/font&gt;" style="text;html=1;strokeColor=none;fillColor=none;align=center;verticalAlign=middle;whiteSpace=wrap;rounded=0;" vertex="1" parent="1">
          <mxGeometry x="84.89" y="-233" width="30" height="20" as="geometry" />
        </mxCell>
        <mxCell id="qsocSsxCrIzBuUTK78k4-21" style="edgeStyle=orthogonalEdgeStyle;rounded=0;orthogonalLoop=1;jettySize=auto;html=1;exitX=0.5;exitY=1;exitDx=0;exitDy=0;entryX=0.5;entryY=0;entryDx=0;entryDy=0;endArrow=open;endFill=0;" edge="1" parent="1" source="qsocSsxCrIzBuUTK78k4-22" target="qsocSsxCrIzBuUTK78k4-29">
          <mxGeometry relative="1" as="geometry" />
        </mxCell>
        <mxCell id="qsocSsxCrIzBuUTK78k4-22" value="&lt;font style=&quot;font-size: 8px;&quot;&gt;funct3&lt;/font&gt;" style="text;html=1;strokeColor=none;fillColor=none;align=center;verticalAlign=middle;whiteSpace=wrap;rounded=0;" vertex="1" parent="1">
          <mxGeometry x="119.89" y="-233" width="30" height="20" as="geometry" />
        </mxCell>
        <mxCell id="qsocSsxCrIzBuUTK78k4-23" style="edgeStyle=orthogonalEdgeStyle;rounded=0;orthogonalLoop=1;jettySize=auto;html=1;exitX=0.5;exitY=1;exitDx=0;exitDy=0;entryX=0.5;entryY=0;entryDx=0;entryDy=0;endArrow=open;endFill=0;" edge="1" parent="1" source="qsocSsxCrIzBuUTK78k4-24" target="qsocSsxCrIzBuUTK78k4-30">
          <mxGeometry relative="1" as="geometry" />
        </mxCell>
        <mxCell id="qsocSsxCrIzBuUTK78k4-24" value="&lt;font style=&quot;font-size: 8px;&quot;&gt;funct7&lt;/font&gt;" style="text;html=1;strokeColor=none;fillColor=none;align=center;verticalAlign=middle;whiteSpace=wrap;rounded=0;" vertex="1" parent="1">
          <mxGeometry x="154.89" y="-233" width="30" height="20" as="geometry" />
        </mxCell>
        <mxCell id="qsocSsxCrIzBuUTK78k4-25" style="edgeStyle=orthogonalEdgeStyle;rounded=0;orthogonalLoop=1;jettySize=auto;html=1;entryX=0.57;entryY=0.83;entryDx=0;entryDy=0;entryPerimeter=0;strokeColor=#ff0000;endArrow=open;endFill=0;" edge="1" parent="1" target="qsocSsxCrIzBuUTK78k4-32">
          <mxGeometry relative="1" as="geometry">
            <mxPoint x="764.89" y="-176.89999999999998" as="targetPoint" />
            <mxPoint x="799.89" y="-206.89999999999998" as="sourcePoint" />
          </mxGeometry>
        </mxCell>
        <mxCell id="qsocSsxCrIzBuUTK78k4-26" value="&lt;font color=&quot;#ff0000&quot;&gt;alu_op&lt;/font&gt;" style="edgeLabel;html=1;align=center;verticalAlign=middle;resizable=0;points=[];fontSize=11;fontFamily=Helvetica;fontColor=default;" connectable="0" vertex="1" parent="qsocSsxCrIzBuUTK78k4-25">
          <mxGeometry x="-0.8885" relative="1" as="geometry">
            <mxPoint x="1" as="offset" />
          </mxGeometry>
        </mxCell>
        <mxCell id="qsocSsxCrIzBuUTK78k4-27" value="&lt;font style=&quot;font-size: 8px;&quot;&gt;&lt;b&gt;Controller&lt;/b&gt;&lt;/font&gt;" style="rounded=0;whiteSpace=wrap;html=1;points=[[0,0,0,0,0],[0,0.25,0,0,0],[0,0.5,0,0,0],[0,0.75,0,0,0],[0,1,0,0,0],[0.25,0,0,0,0],[0.25,1,0,0,0],[0.5,0,0,0,0],[0.5,1,0,0,0],[0.75,0,0,0,0],[0.75,1,0,0,0],[1,0.12,0,0,0],[1,0.31,0,0,0],[1,0.5,0,0,0],[1,0.69,0,0,0],[1,0.88,0,0,0]];" vertex="1" parent="1">
          <mxGeometry x="74.89" y="-45" width="120" height="150" as="geometry" />
        </mxCell>
        <mxCell id="qsocSsxCrIzBuUTK78k4-28" value="&lt;font style=&quot;font-size: 8px;&quot;&gt;opcode&lt;/font&gt;" style="text;html=1;strokeColor=none;fillColor=none;align=center;verticalAlign=middle;whiteSpace=wrap;rounded=0;" vertex="1" parent="1">
          <mxGeometry x="84.89" y="-45" width="30" height="20" as="geometry" />
        </mxCell>
        <mxCell id="qsocSsxCrIzBuUTK78k4-29" value="&lt;font style=&quot;font-size: 8px;&quot;&gt;funct3&lt;/font&gt;" style="text;html=1;strokeColor=none;fillColor=none;align=center;verticalAlign=middle;whiteSpace=wrap;rounded=0;" vertex="1" parent="1">
          <mxGeometry x="119.89" y="-45" width="30" height="20" as="geometry" />
        </mxCell>
        <mxCell id="qsocSsxCrIzBuUTK78k4-30" value="&lt;font style=&quot;font-size: 8px;&quot;&gt;funct7&lt;/font&gt;" style="text;html=1;strokeColor=none;fillColor=none;align=center;verticalAlign=middle;whiteSpace=wrap;rounded=0;horizontal=1;" vertex="1" parent="1">
          <mxGeometry x="154.89" y="-45" width="30" height="20" as="geometry" />
        </mxCell>
        <mxCell id="qsocSsxCrIzBuUTK78k4-31" style="edgeStyle=orthogonalEdgeStyle;rounded=0;orthogonalLoop=1;jettySize=auto;html=1;exitDx=0;exitDy=0;exitPerimeter=0;entryX=0;entryY=0.25;entryDx=0;entryDy=0;endArrow=open;endFill=0;" edge="1" parent="1" source="qsocSsxCrIzBuUTK78k4-42" target="qsocSsxCrIzBuUTK78k4-37">
          <mxGeometry relative="1" as="geometry">
            <Array as="points">
              <mxPoint x="1083.6000000000001" y="-117" />
              <mxPoint x="1083.6000000000001" y="-154" />
              <mxPoint x="1103.6000000000001" y="-154" />
            </Array>
          </mxGeometry>
        </mxCell>
        <mxCell id="qsocSsxCrIzBuUTK78k4-32" value="" style="verticalLabelPosition=bottom;verticalAlign=top;html=1;shape=mxgraph.basic.polygon;polyCoords=[[0,0],[1,0.3],[1,0.5],[1,0.7],[0,1],[0,0.6],[0.2,0.5],[0,0.4]];polyline=0;shadow=0;aspect=fixed;points=[[0,0.21,0,0,0],[0,0.79,0,0,0],[0.57,0.83,0,0,0],[1,0.5,0,0,0]];" vertex="1" parent="1">
          <mxGeometry x="754.89" y="-336.9" width="78.57" height="110" as="geometry" />
        </mxCell>
        <mxCell id="qsocSsxCrIzBuUTK78k4-34" style="edgeStyle=orthogonalEdgeStyle;rounded=0;orthogonalLoop=1;jettySize=auto;html=1;exitX=1;exitY=0.5;exitDx=0;exitDy=0;entryX=0.6;entryY=1;entryDx=0;entryDy=0;entryPerimeter=0;endArrow=open;endFill=0;" edge="1" parent="1" source="qsocSsxCrIzBuUTK78k4-37" target="qsocSsxCrIzBuUTK78k4-126">
          <mxGeometry relative="1" as="geometry">
            <mxPoint x="1294.085" y="-78.6049999999999" as="targetPoint" />
            <Array as="points">
              <mxPoint x="1193.6000000000001" y="-115" />
            </Array>
          </mxGeometry>
        </mxCell>
        <mxCell id="qsocSsxCrIzBuUTK78k4-35" style="edgeStyle=orthogonalEdgeStyle;shape=connector;rounded=0;orthogonalLoop=1;jettySize=auto;html=1;labelBackgroundColor=default;strokeColor=#ff0000;align=center;verticalAlign=middle;fontFamily=Helvetica;fontSize=11;fontColor=default;endArrow=open;entryX=0.5;entryY=1;entryDx=0;entryDy=0;endFill=0;" edge="1" parent="1" target="qsocSsxCrIzBuUTK78k4-37">
          <mxGeometry relative="1" as="geometry">
            <mxPoint x="1148.03" y="-1.8999999999999773" as="sourcePoint" />
            <mxPoint x="1148.0300000000004" y="-34.400000000000205" as="targetPoint" />
          </mxGeometry>
        </mxCell>
        <mxCell id="qsocSsxCrIzBuUTK78k4-36" value="&lt;font color=&quot;#ff0000&quot;&gt;dm_en&lt;/font&gt;" style="edgeLabel;html=1;align=center;verticalAlign=middle;resizable=0;points=[];fontSize=11;fontFamily=Helvetica;fontColor=default;" connectable="0" vertex="1" parent="qsocSsxCrIzBuUTK78k4-35">
          <mxGeometry x="-0.537" relative="1" as="geometry">
            <mxPoint y="12" as="offset" />
          </mxGeometry>
        </mxCell>
        <mxCell id="qsocSsxCrIzBuUTK78k4-37" value="&lt;font style=&quot;font-size: 8px;&quot;&gt;&lt;b&gt;Data&lt;br&gt;Memory&lt;/b&gt;&lt;/font&gt;" style="whiteSpace=wrap;html=1;" vertex="1" parent="1">
          <mxGeometry x="1103.46" y="-191.89999999999998" width="90" height="150" as="geometry" />
        </mxCell>
        <mxCell id="qsocSsxCrIzBuUTK78k4-39" value="" style="edgeStyle=orthogonalEdgeStyle;rounded=0;orthogonalLoop=1;jettySize=auto;html=1;exitX=0.99;exitY=0.228;exitDx=0;exitDy=0;entryDx=0;entryDy=0;endArrow=none;endFill=0;entryX=0.434;entryY=0.63;entryPerimeter=0;exitPerimeter=0;" edge="1" parent="1" source="rQjSW9OJ4u-2Hxz2X1gc-8" target="qsocSsxCrIzBuUTK78k4-42">
          <mxGeometry relative="1" as="geometry">
            <mxPoint x="979.9999999999998" y="341.10000000000025" as="sourcePoint" />
            <mxPoint x="1031.4299999999998" y="350.96000000000004" as="targetPoint" />
            <Array as="points">
              <mxPoint x="980" y="175" />
              <mxPoint x="980" y="341" />
            </Array>
          </mxGeometry>
        </mxCell>
        <mxCell id="qsocSsxCrIzBuUTK78k4-40" style="edgeStyle=orthogonalEdgeStyle;rounded=0;orthogonalLoop=1;jettySize=auto;html=1;entryX=0.4;entryY=1;entryDx=0;entryDy=0;entryPerimeter=0;endArrow=open;endFill=0;" edge="1" parent="1" target="qsocSsxCrIzBuUTK78k4-126">
          <mxGeometry relative="1" as="geometry">
            <mxPoint x="1294.085" y="-109.40500000000009" as="targetPoint" />
            <Array as="points">
              <mxPoint x="1242.6000000000001" y="-212" />
              <mxPoint x="1242.6000000000001" y="-129" />
            </Array>
            <mxPoint x="1061.4599999999998" y="-211.9000000000001" as="sourcePoint" />
          </mxGeometry>
        </mxCell>
        <mxCell id="qsocSsxCrIzBuUTK78k4-42" value="" style="shape=waypoint;sketch=0;fillStyle=solid;size=6;pointerEvents=1;points=[];fillColor=none;resizable=0;rotatable=0;perimeter=centerPerimeter;snapToPoint=1;" vertex="1" parent="1">
          <mxGeometry x="1051.46" y="-126.89999999999998" width="20" height="20" as="geometry" />
        </mxCell>
        <mxCell id="qsocSsxCrIzBuUTK78k4-43" style="edgeStyle=orthogonalEdgeStyle;rounded=0;orthogonalLoop=1;jettySize=auto;html=1;entryX=0;entryY=0.5;entryDx=0;entryDy=0;endArrow=open;endFill=0;" edge="1" parent="1" source="qsocSsxCrIzBuUTK78k4-51" target="qsocSsxCrIzBuUTK78k4-4">
          <mxGeometry relative="1" as="geometry" />
        </mxCell>
        <mxCell id="qsocSsxCrIzBuUTK78k4-44" value="&lt;font style=&quot;font-size: 8px;&quot;&gt;&lt;b&gt;Program&lt;br&gt;Counter&lt;/b&gt;&lt;/font&gt;" style="rounded=0;whiteSpace=wrap;html=1;" vertex="1" parent="1">
          <mxGeometry x="-345.11" y="-152.07" width="70" height="93.13" as="geometry" />
        </mxCell>
        <mxCell id="qsocSsxCrIzBuUTK78k4-45" value="" style="triangle;whiteSpace=wrap;html=1;rotation=-90;" vertex="1" parent="1">
          <mxGeometry x="-320.11" y="-78.94000000000005" width="20" height="20" as="geometry" />
        </mxCell>
        <mxCell id="qsocSsxCrIzBuUTK78k4-46" value="&lt;b&gt;+&lt;/b&gt;" style="ellipse;whiteSpace=wrap;html=1;aspect=fixed;" vertex="1" parent="1">
          <mxGeometry x="1000.5999999999998" y="-403" width="30" height="30" as="geometry" />
        </mxCell>
        <mxCell id="qsocSsxCrIzBuUTK78k4-47" style="edgeStyle=orthogonalEdgeStyle;rounded=0;orthogonalLoop=1;jettySize=auto;html=1;entryX=0.2;entryY=1;entryDx=0;entryDy=0;entryPerimeter=0;endArrow=open;endFill=0;" edge="1" parent="1" source="qsocSsxCrIzBuUTK78k4-46" target="qsocSsxCrIzBuUTK78k4-126">
          <mxGeometry relative="1" as="geometry">
            <mxPoint x="1294.085" y="-140.20500000000027" as="targetPoint" />
            <Array as="points">
              <mxPoint x="1015.6" y="-262" />
              <mxPoint x="1272.6000000000001" y="-262" />
              <mxPoint x="1272.6000000000001" y="-143" />
            </Array>
          </mxGeometry>
        </mxCell>
        <mxCell id="qsocSsxCrIzBuUTK78k4-48" value="" style="edgeStyle=orthogonalEdgeStyle;rounded=0;orthogonalLoop=1;jettySize=auto;html=1;entryDx=0;entryDy=0;endArrow=none;endFill=0;" edge="1" parent="1" source="qsocSsxCrIzBuUTK78k4-44" target="qsocSsxCrIzBuUTK78k4-51">
          <mxGeometry relative="1" as="geometry">
            <mxPoint x="-275.11" y="-106" as="sourcePoint" />
            <mxPoint x="-195.11" y="-105" as="targetPoint" />
          </mxGeometry>
        </mxCell>
        <mxCell id="qsocSsxCrIzBuUTK78k4-49" style="edgeStyle=orthogonalEdgeStyle;rounded=0;orthogonalLoop=1;jettySize=auto;html=1;entryX=0;entryY=0.5;entryDx=0;entryDy=0;endArrow=open;endFill=0;exitX=1.003;exitY=0.056;exitDx=0;exitDy=0;exitPerimeter=0;" edge="1" parent="1" target="qsocSsxCrIzBuUTK78k4-46">
          <mxGeometry relative="1" as="geometry">
            <mxPoint x="1127.0300000000036" y="-388.25" as="targetPoint" />
            <Array as="points" />
            <mxPoint x="924.9499999999999" y="-387.74599999999987" as="sourcePoint" />
          </mxGeometry>
        </mxCell>
        <mxCell id="qsocSsxCrIzBuUTK78k4-50" style="edgeStyle=orthogonalEdgeStyle;rounded=0;orthogonalLoop=1;jettySize=auto;html=1;entryX=1;entryY=0.5;entryDx=0;entryDy=0;endArrow=open;endFill=0;" edge="1" parent="1" source="qsocSsxCrIzBuUTK78k4-51" target="qsocSsxCrIzBuUTK78k4-53">
          <mxGeometry relative="1" as="geometry">
            <Array as="points">
              <mxPoint x="-235.11" y="-3" />
            </Array>
          </mxGeometry>
        </mxCell>
        <mxCell id="qsocSsxCrIzBuUTK78k4-51" value="" style="shape=waypoint;sketch=0;fillStyle=solid;size=6;pointerEvents=1;points=[];fillColor=none;resizable=0;rotatable=0;perimeter=centerPerimeter;snapToPoint=1;" vertex="1" parent="1">
          <mxGeometry x="-245.11" y="-115.5" width="20" height="20" as="geometry" />
        </mxCell>
        <mxCell id="qsocSsxCrIzBuUTK78k4-52" style="edgeStyle=orthogonalEdgeStyle;rounded=0;orthogonalLoop=1;jettySize=auto;html=1;exitX=0.5;exitY=0;exitDx=0;exitDy=0;entryX=0.25;entryY=1;entryDx=0;entryDy=0;endArrow=open;endFill=0;" edge="1" parent="1" source="qsocSsxCrIzBuUTK78k4-80" target="qsocSsxCrIzBuUTK78k4-144">
          <mxGeometry relative="1" as="geometry">
            <Array as="points" />
          </mxGeometry>
        </mxCell>
        <mxCell id="qsocSsxCrIzBuUTK78k4-53" value="&lt;b&gt;+&lt;/b&gt;" style="ellipse;whiteSpace=wrap;html=1;aspect=fixed;" vertex="1" parent="1">
          <mxGeometry x="-330.11" y="-18" width="30" height="30" as="geometry" />
        </mxCell>
        <mxCell id="qsocSsxCrIzBuUTK78k4-54" style="edgeStyle=orthogonalEdgeStyle;rounded=0;orthogonalLoop=1;jettySize=auto;html=1;entryX=0.5;entryY=1;entryDx=0;entryDy=0;endArrow=open;endFill=0;" edge="1" parent="1" source="qsocSsxCrIzBuUTK78k4-55" target="qsocSsxCrIzBuUTK78k4-53">
          <mxGeometry relative="1" as="geometry" />
        </mxCell>
        <mxCell id="qsocSsxCrIzBuUTK78k4-55" value="&lt;b&gt;32&#39;d4&lt;/b&gt;" style="text;html=1;strokeColor=none;fillColor=none;align=center;verticalAlign=middle;whiteSpace=wrap;rounded=0;" vertex="1" parent="1">
          <mxGeometry x="-345.11" y="52" width="60" height="30" as="geometry" />
        </mxCell>
        <mxCell id="qsocSsxCrIzBuUTK78k4-56" style="edgeStyle=orthogonalEdgeStyle;rounded=0;orthogonalLoop=1;jettySize=auto;html=1;entryX=0.5;entryY=0;entryDx=0;entryDy=0;endArrow=open;endFill=0;exitX=0.5;exitY=1;exitDx=0;exitDy=0;" edge="1" parent="1" source="qsocSsxCrIzBuUTK78k4-57" target="qsocSsxCrIzBuUTK78k4-46">
          <mxGeometry relative="1" as="geometry">
            <mxPoint x="1015.6" y="-438" as="sourcePoint" />
          </mxGeometry>
        </mxCell>
        <mxCell id="qsocSsxCrIzBuUTK78k4-57" value="&lt;b&gt;32&#39;d4&lt;/b&gt;" style="text;html=1;strokeColor=none;fillColor=none;align=center;verticalAlign=middle;whiteSpace=wrap;rounded=0;" vertex="1" parent="1">
          <mxGeometry x="985.5999999999999" y="-460" width="60" height="30" as="geometry" />
        </mxCell>
        <mxCell id="qsocSsxCrIzBuUTK78k4-58" value="&lt;font style=&quot;font-size: 8px;&quot;&gt;addr&lt;/font&gt;" style="text;html=1;strokeColor=none;fillColor=none;align=center;verticalAlign=middle;whiteSpace=wrap;rounded=0;" vertex="1" parent="1">
          <mxGeometry x="-195.11" y="-110.50999999999999" width="30" height="10" as="geometry" />
        </mxCell>
        <mxCell id="qsocSsxCrIzBuUTK78k4-59" style="edgeStyle=orthogonalEdgeStyle;rounded=0;orthogonalLoop=1;jettySize=auto;html=1;entryX=1;entryY=0.5;entryDx=0;entryDy=0;strokeColor=#ff0000;endArrow=open;endFill=0;" edge="1" parent="1" target="qsocSsxCrIzBuUTK78k4-61">
          <mxGeometry relative="1" as="geometry">
            <mxPoint x="709.89" y="-176.89999999999998" as="sourcePoint" />
          </mxGeometry>
        </mxCell>
        <mxCell id="qsocSsxCrIzBuUTK78k4-60" value="&lt;font color=&quot;#ff0000&quot;&gt;opr_b_sel&lt;/font&gt;" style="edgeLabel;html=1;align=center;verticalAlign=middle;resizable=0;points=[];fontSize=11;fontFamily=Helvetica;fontColor=default;" connectable="0" vertex="1" parent="qsocSsxCrIzBuUTK78k4-59">
          <mxGeometry x="-0.8593" y="1" relative="1" as="geometry">
            <mxPoint x="1" y="-2" as="offset" />
          </mxGeometry>
        </mxCell>
        <mxCell id="qsocSsxCrIzBuUTK78k4-61" value="" style="shape=trapezoid;perimeter=trapezoidPerimeter;whiteSpace=wrap;html=1;fixedSize=1;rotation=90;size=13.269999999999982;" vertex="1" parent="1">
          <mxGeometry x="674.89" y="-243.89999999999998" width="70" height="22.2" as="geometry" />
        </mxCell>
        <mxCell id="qsocSsxCrIzBuUTK78k4-62" style="edgeStyle=orthogonalEdgeStyle;rounded=0;orthogonalLoop=1;jettySize=auto;html=1;exitX=0.5;exitY=0;exitDx=0;exitDy=0;exitPerimeter=0;entryX=0;entryY=0.79;entryDx=0;entryDy=0;entryPerimeter=0;endArrow=open;endFill=0;" edge="1" parent="1" source="qsocSsxCrIzBuUTK78k4-61" target="qsocSsxCrIzBuUTK78k4-32">
          <mxGeometry relative="1" as="geometry">
            <Array as="points">
              <mxPoint x="734.89" y="-230.89999999999998" />
              <mxPoint x="734.89" y="-249.89999999999998" />
            </Array>
          </mxGeometry>
        </mxCell>
        <mxCell id="qsocSsxCrIzBuUTK78k4-63" style="edgeStyle=orthogonalEdgeStyle;rounded=0;orthogonalLoop=1;jettySize=auto;html=1;exitX=1;exitY=0.5;exitDx=0;exitDy=0;endArrow=open;endFill=0;entryX=0;entryY=0.5;entryDx=0;entryDy=0;" edge="1" parent="1" source="qsocSsxCrIzBuUTK78k4-66" target="rQjSW9OJ4u-2Hxz2X1gc-2">
          <mxGeometry relative="1" as="geometry">
            <Array as="points">
              <mxPoint x="310" y="345" />
              <mxPoint x="310" y="345" />
            </Array>
            <mxPoint x="400" y="350" as="targetPoint" />
          </mxGeometry>
        </mxCell>
        <mxCell id="qsocSsxCrIzBuUTK78k4-64" style="edgeStyle=orthogonalEdgeStyle;rounded=0;orthogonalLoop=1;jettySize=auto;html=1;strokeColor=#FF0000;endArrow=open;endFill=0;" edge="1" parent="1" target="qsocSsxCrIzBuUTK78k4-66">
          <mxGeometry relative="1" as="geometry">
            <mxPoint x="364.89" y="-58" as="sourcePoint" />
          </mxGeometry>
        </mxCell>
        <mxCell id="qsocSsxCrIzBuUTK78k4-65" value="&lt;font color=&quot;#ff0000&quot;&gt;imm_type&lt;/font&gt;" style="edgeLabel;html=1;align=center;verticalAlign=middle;resizable=0;points=[];fontSize=11;fontFamily=Helvetica;fontColor=default;" connectable="0" vertex="1" parent="qsocSsxCrIzBuUTK78k4-64">
          <mxGeometry x="-0.6403" y="1" relative="1" as="geometry">
            <mxPoint x="1" y="20" as="offset" />
          </mxGeometry>
        </mxCell>
        <mxCell id="A-zAFiVIeCYd5Qx_0c2q-6" style="edgeStyle=orthogonalEdgeStyle;rounded=0;orthogonalLoop=1;jettySize=auto;html=1;entryX=0;entryY=0.5;entryDx=0;entryDy=0;endArrow=open;endFill=0;" edge="1" parent="1" source="qsocSsxCrIzBuUTK78k4-66" target="rQjSW9OJ4u-2Hxz2X1gc-2">
          <mxGeometry relative="1" as="geometry" />
        </mxCell>
        <mxCell id="qsocSsxCrIzBuUTK78k4-66" value="&lt;font style=&quot;font-size: 8px;&quot;&gt;&lt;b&gt;Immediate&lt;br&gt;Generator&lt;/b&gt;&lt;/font&gt;" style="rounded=0;whiteSpace=wrap;html=1;" vertex="1" parent="1">
          <mxGeometry x="314.89" y="-138" width="100" height="50" as="geometry" />
        </mxCell>
        <mxCell id="qsocSsxCrIzBuUTK78k4-69" style="edgeStyle=orthogonalEdgeStyle;rounded=0;orthogonalLoop=1;jettySize=auto;html=1;entryX=1;entryY=0.5;entryDx=0;entryDy=0;strokeColor=#ff0000;endArrow=open;endFill=0;" edge="1" parent="1" target="qsocSsxCrIzBuUTK78k4-71">
          <mxGeometry relative="1" as="geometry">
            <mxPoint x="709.89" y="-288" as="sourcePoint" />
          </mxGeometry>
        </mxCell>
        <mxCell id="qsocSsxCrIzBuUTK78k4-70" value="&lt;font color=&quot;#ff0000&quot;&gt;opr_a_sel&lt;/font&gt;" style="edgeLabel;html=1;align=center;verticalAlign=middle;resizable=0;points=[];fontSize=11;fontFamily=Helvetica;fontColor=default;" connectable="0" vertex="1" parent="qsocSsxCrIzBuUTK78k4-69">
          <mxGeometry x="-0.9068" y="-1" relative="1" as="geometry">
            <mxPoint x="-1" y="1" as="offset" />
          </mxGeometry>
        </mxCell>
        <mxCell id="qsocSsxCrIzBuUTK78k4-71" value="" style="shape=trapezoid;perimeter=trapezoidPerimeter;whiteSpace=wrap;html=1;fixedSize=1;rotation=90;size=13.269999999999982;" vertex="1" parent="1">
          <mxGeometry x="674.89" y="-350.1" width="70" height="22.2" as="geometry" />
        </mxCell>
        <mxCell id="qsocSsxCrIzBuUTK78k4-74" style="edgeStyle=orthogonalEdgeStyle;rounded=0;orthogonalLoop=1;jettySize=auto;html=1;entryX=0;entryY=0.21;entryDx=0;entryDy=0;entryPerimeter=0;exitX=0.5;exitY=0;exitDx=0;exitDy=0;endArrow=open;endFill=0;" edge="1" parent="1" source="qsocSsxCrIzBuUTK78k4-71" target="qsocSsxCrIzBuUTK78k4-32">
          <mxGeometry relative="1" as="geometry">
            <mxPoint x="714.89" y="-316.9" as="sourcePoint" />
            <Array as="points">
              <mxPoint x="720.89" y="-338" />
              <mxPoint x="734.89" y="-338" />
              <mxPoint x="734.89" y="-314" />
            </Array>
          </mxGeometry>
        </mxCell>
        <mxCell id="qsocSsxCrIzBuUTK78k4-75" style="edgeStyle=orthogonalEdgeStyle;shape=connector;rounded=0;orthogonalLoop=1;jettySize=auto;html=1;labelBackgroundColor=default;strokeColor=#000000;align=center;verticalAlign=middle;fontFamily=Helvetica;fontSize=11;fontColor=default;endArrow=open;exitX=1;exitY=0.75;exitDx=0;exitDy=0;entryX=0;entryY=0.5;entryDx=0;entryDy=0;endFill=0;" edge="1" parent="1" source="qsocSsxCrIzBuUTK78k4-82" target="qsocSsxCrIzBuUTK78k4-81">
          <mxGeometry relative="1" as="geometry">
            <mxPoint x="319.89" y="218.5" as="targetPoint" />
            <mxPoint x="830.6" y="113.5" as="sourcePoint" />
            <Array as="points">
              <mxPoint x="700.89" y="113" />
              <mxPoint x="724.89" y="113" />
              <mxPoint x="724.89" y="232" />
              <mxPoint x="34.89" y="232" />
              <mxPoint x="34.89" y="30" />
            </Array>
          </mxGeometry>
        </mxCell>
        <mxCell id="qsocSsxCrIzBuUTK78k4-76" value="&lt;font style=&quot;font-size: 8px;&quot;&gt;&lt;b&gt;Branch&lt;br&gt;Comparator&lt;/b&gt;&lt;/font&gt;" style="whiteSpace=wrap;html=1;fontFamily=Helvetica;fontSize=11;fontColor=default;" vertex="1" parent="1">
          <mxGeometry x="619.89" y="80" width="80.71" height="60" as="geometry" />
        </mxCell>
        <mxCell id="qsocSsxCrIzBuUTK78k4-79" value="" style="edgeStyle=orthogonalEdgeStyle;rounded=0;orthogonalLoop=1;jettySize=auto;html=1;exitX=0;exitY=0.5;exitDx=0;exitDy=0;entryX=0.75;entryY=1;entryDx=0;entryDy=0;endArrow=open;endFill=0;" edge="1" parent="1" source="qsocSsxCrIzBuUTK78k4-53" target="qsocSsxCrIzBuUTK78k4-80">
          <mxGeometry relative="1" as="geometry">
            <mxPoint x="-330.11" y="-3" as="sourcePoint" />
            <mxPoint x="-345.11" y="-106" as="targetPoint" />
            <Array as="points">
              <mxPoint x="-545.11" y="-3" />
              <mxPoint x="-545.11" y="-89" />
            </Array>
          </mxGeometry>
        </mxCell>
        <mxCell id="qsocSsxCrIzBuUTK78k4-80" value="" style="shape=trapezoid;perimeter=trapezoidPerimeter;whiteSpace=wrap;html=1;fixedSize=1;rotation=90;size=13.269999999999982;" vertex="1" parent="1">
          <mxGeometry x="-505.11" y="-118.00000000000011" width="70" height="22.2" as="geometry" />
        </mxCell>
        <mxCell id="qsocSsxCrIzBuUTK78k4-81" value="&lt;font style=&quot;font-size: 8px;&quot;&gt;comp&lt;/font&gt;" style="text;html=1;strokeColor=none;fillColor=none;align=center;verticalAlign=middle;whiteSpace=wrap;rounded=0;" vertex="1" parent="1">
          <mxGeometry x="74.89" y="20" width="30" height="20" as="geometry" />
        </mxCell>
        <mxCell id="qsocSsxCrIzBuUTK78k4-82" value="&lt;font style=&quot;font-size: 6px;&quot;&gt;comp&lt;/font&gt;" style="text;html=1;strokeColor=none;fillColor=none;align=center;verticalAlign=middle;whiteSpace=wrap;rounded=0;" vertex="1" parent="1">
          <mxGeometry x="680.6" y="103" width="20" height="10" as="geometry" />
        </mxCell>
        <mxCell id="qsocSsxCrIzBuUTK78k4-83" value="&lt;font style=&quot;font-size: 6px;&quot;&gt;opr_a&lt;/font&gt;" style="text;html=1;strokeColor=none;fillColor=none;align=center;verticalAlign=middle;whiteSpace=wrap;rounded=0;" vertex="1" parent="1">
          <mxGeometry x="619.89" y="89" width="20" height="8" as="geometry" />
        </mxCell>
        <mxCell id="qsocSsxCrIzBuUTK78k4-84" value="&lt;font style=&quot;font-size: 6px;&quot;&gt;opr_b&lt;/font&gt;" style="text;html=1;strokeColor=none;fillColor=none;align=center;verticalAlign=middle;whiteSpace=wrap;rounded=0;" vertex="1" parent="1">
          <mxGeometry x="619.89" y="119" width="20" height="8" as="geometry" />
        </mxCell>
        <mxCell id="qsocSsxCrIzBuUTK78k4-85" value="&lt;font style=&quot;font-size: 6px;&quot;&gt;pc_in&lt;/font&gt;" style="text;html=1;strokeColor=none;fillColor=none;align=center;verticalAlign=middle;whiteSpace=wrap;rounded=0;" vertex="1" parent="1">
          <mxGeometry x="-345.11" y="-115" width="20" height="15" as="geometry" />
        </mxCell>
        <mxCell id="qsocSsxCrIzBuUTK78k4-86" value="&lt;font style=&quot;font-size: 6px;&quot;&gt;pc_out&lt;/font&gt;" style="text;html=1;strokeColor=none;fillColor=none;align=center;verticalAlign=middle;whiteSpace=wrap;rounded=0;" vertex="1" parent="1">
          <mxGeometry x="-297.11" y="-112" width="22" height="10" as="geometry" />
        </mxCell>
        <mxCell id="qsocSsxCrIzBuUTK78k4-88" value="&lt;font style=&quot;font-size: 8px;&quot;&gt;rdata2&lt;/font&gt;" style="text;html=1;strokeColor=none;fillColor=none;align=center;verticalAlign=middle;whiteSpace=wrap;rounded=0;" vertex="1" parent="1">
          <mxGeometry x="314.89" y="-263" width="30" height="10" as="geometry" />
        </mxCell>
        <mxCell id="qsocSsxCrIzBuUTK78k4-89" value="&lt;font style=&quot;font-size: 8px;&quot;&gt;rdata1&lt;/font&gt;" style="text;html=1;strokeColor=none;fillColor=none;align=center;verticalAlign=middle;whiteSpace=wrap;rounded=0;" vertex="1" parent="1">
          <mxGeometry x="314.89" y="-326.9" width="30" height="10" as="geometry" />
        </mxCell>
        <mxCell id="qsocSsxCrIzBuUTK78k4-91" value="" style="edgeStyle=orthogonalEdgeStyle;rounded=0;orthogonalLoop=1;jettySize=auto;html=1;exitX=1;exitY=0.63;exitDx=0;exitDy=0;exitPerimeter=0;endArrow=open;endFill=0;entryX=-0.03;entryY=0.274;entryDx=0;entryDy=0;entryPerimeter=0;" edge="1" parent="1" source="qsocSsxCrIzBuUTK78k4-3" target="rQjSW9OJ4u-2Hxz2X1gc-2">
          <mxGeometry relative="1" as="geometry">
            <mxPoint x="270" y="202" as="sourcePoint" />
            <mxPoint x="400" y="202" as="targetPoint" />
            <Array as="points" />
          </mxGeometry>
        </mxCell>
        <mxCell id="qsocSsxCrIzBuUTK78k4-94" value="" style="edgeStyle=orthogonalEdgeStyle;rounded=0;orthogonalLoop=1;jettySize=auto;html=1;exitX=1;exitY=0.25;exitDx=0;exitDy=0;exitPerimeter=0;endArrow=open;endFill=0;entryX=-0.01;entryY=0.172;entryDx=0;entryDy=0;entryPerimeter=0;" edge="1" parent="1" source="qsocSsxCrIzBuUTK78k4-3" target="rQjSW9OJ4u-2Hxz2X1gc-2">
          <mxGeometry relative="1" as="geometry">
            <mxPoint x="270" y="138" as="sourcePoint" />
            <mxPoint x="400" y="137" as="targetPoint" />
          </mxGeometry>
        </mxCell>
        <mxCell id="qsocSsxCrIzBuUTK78k4-96" value="" style="edgeStyle=orthogonalEdgeStyle;rounded=0;orthogonalLoop=1;jettySize=auto;html=1;entryDx=0;entryDy=0;endArrow=open;endFill=0;" edge="1" parent="1">
          <mxGeometry relative="1" as="geometry">
            <mxPoint x="749.89" y="-259.95" as="sourcePoint" />
            <mxPoint x="749.89" y="-259.95" as="targetPoint" />
            <Array as="points" />
          </mxGeometry>
        </mxCell>
        <mxCell id="qsocSsxCrIzBuUTK78k4-98" style="edgeStyle=orthogonalEdgeStyle;shape=connector;rounded=0;orthogonalLoop=1;jettySize=auto;html=1;labelBackgroundColor=default;strokeColor=#ff0000;align=center;verticalAlign=middle;fontFamily=Helvetica;fontSize=11;fontColor=default;endArrow=open;entryX=1;entryY=0.5;entryDx=0;entryDy=0;endFill=0;" edge="1" parent="1" target="qsocSsxCrIzBuUTK78k4-126">
          <mxGeometry relative="1" as="geometry">
            <mxPoint x="1414.0700000000002" y="-86.14500000000002" as="targetPoint" />
            <mxPoint x="1445" y="-40.5" as="sourcePoint" />
            <Array as="points">
              <mxPoint x="1445" y="-60.5" />
            </Array>
          </mxGeometry>
        </mxCell>
        <mxCell id="qsocSsxCrIzBuUTK78k4-99" value="&lt;font color=&quot;#ff0000&quot;&gt;wb_sel&lt;/font&gt;" style="edgeLabel;html=1;align=center;verticalAlign=middle;resizable=0;points=[];fontSize=11;fontFamily=Helvetica;fontColor=default;" connectable="0" vertex="1" parent="qsocSsxCrIzBuUTK78k4-98">
          <mxGeometry x="-0.3771" relative="1" as="geometry">
            <mxPoint y="21" as="offset" />
          </mxGeometry>
        </mxCell>
        <mxCell id="qsocSsxCrIzBuUTK78k4-100" style="edgeStyle=orthogonalEdgeStyle;rounded=0;orthogonalLoop=1;jettySize=auto;html=1;entryX=1;entryY=0.5;entryDx=0;entryDy=0;strokeColor=#ff0000;endArrow=open;endFill=0;" edge="1" parent="1" target="qsocSsxCrIzBuUTK78k4-80">
          <mxGeometry relative="1" as="geometry">
            <mxPoint x="-470.33000000000004" y="-72.81999999999994" as="targetPoint" />
            <mxPoint x="-470.11" y="-49.389999999999986" as="sourcePoint" />
          </mxGeometry>
        </mxCell>
        <mxCell id="qsocSsxCrIzBuUTK78k4-101" value="&lt;font color=&quot;#ff0000&quot;&gt;pc_sel&lt;/font&gt;" style="edgeLabel;html=1;align=center;verticalAlign=middle;resizable=0;points=[];fontSize=11;fontFamily=Helvetica;fontColor=default;" connectable="0" vertex="1" parent="qsocSsxCrIzBuUTK78k4-100">
          <mxGeometry x="-0.3265" y="-1" relative="1" as="geometry">
            <mxPoint x="-1" y="8" as="offset" />
          </mxGeometry>
        </mxCell>
        <mxCell id="qsocSsxCrIzBuUTK78k4-102" value="" style="edgeStyle=orthogonalEdgeStyle;rounded=0;orthogonalLoop=1;jettySize=auto;html=1;entryDx=0;entryDy=0;entryPerimeter=0;endArrow=none;endFill=0;" edge="1" parent="1" source="qsocSsxCrIzBuUTK78k4-42">
          <mxGeometry relative="1" as="geometry">
            <mxPoint x="1061.4599999999998" y="-211.9000000000001" as="targetPoint" />
            <mxPoint x="1062.0300000000002" y="-121.89999999999998" as="sourcePoint" />
            <Array as="points" />
          </mxGeometry>
        </mxCell>
        <mxCell id="qsocSsxCrIzBuUTK78k4-105" value="&lt;font style=&quot;font-size: 8px;&quot;&gt;opr_a&lt;/font&gt;" style="text;html=1;strokeColor=none;fillColor=none;align=center;verticalAlign=middle;whiteSpace=wrap;rounded=0;" vertex="1" parent="1">
          <mxGeometry x="754.89" y="-319.79999999999995" width="30" height="10" as="geometry" />
        </mxCell>
        <mxCell id="qsocSsxCrIzBuUTK78k4-106" value="&lt;font style=&quot;font-size: 8px;&quot;&gt;opr_b&lt;/font&gt;" style="text;html=1;strokeColor=none;fillColor=none;align=center;verticalAlign=middle;whiteSpace=wrap;rounded=0;" vertex="1" parent="1">
          <mxGeometry x="754.89" y="-256.9" width="30" height="10" as="geometry" />
        </mxCell>
        <mxCell id="rQjSW9OJ4u-2Hxz2X1gc-10" style="edgeStyle=orthogonalEdgeStyle;rounded=0;orthogonalLoop=1;jettySize=auto;html=1;endArrow=open;endFill=0;entryX=-0.002;entryY=0.23;entryDx=0;entryDy=0;entryPerimeter=0;exitX=1;exitY=0.5;exitDx=0;exitDy=0;exitPerimeter=0;" edge="1" parent="1" source="qsocSsxCrIzBuUTK78k4-32" target="rQjSW9OJ4u-2Hxz2X1gc-8">
          <mxGeometry relative="1" as="geometry">
            <mxPoint x="924.8900000000004" y="-283.85714285714266" as="sourcePoint" />
            <mxPoint x="939.18" y="-284" as="targetPoint" />
          </mxGeometry>
        </mxCell>
        <mxCell id="qsocSsxCrIzBuUTK78k4-107" value="&lt;font style=&quot;font-size: 8px;&quot;&gt;opr_res&lt;/font&gt;" style="text;html=1;strokeColor=none;fillColor=none;align=center;verticalAlign=middle;whiteSpace=wrap;rounded=0;" vertex="1" parent="1">
          <mxGeometry x="800.6" y="-288.78" width="30" height="10" as="geometry" />
        </mxCell>
        <mxCell id="qsocSsxCrIzBuUTK78k4-108" value="&lt;font style=&quot;font-size: 8px;&quot;&gt;addr&lt;/font&gt;" style="text;html=1;strokeColor=none;fillColor=none;align=center;verticalAlign=middle;whiteSpace=wrap;rounded=0;" vertex="1" parent="1">
          <mxGeometry x="1103.46" y="-151.89999999999998" width="30" height="10" as="geometry" />
        </mxCell>
        <mxCell id="qsocSsxCrIzBuUTK78k4-109" value="&lt;font style=&quot;font-size: 8px;&quot;&gt;wdata&lt;/font&gt;" style="text;html=1;strokeColor=none;fillColor=none;align=center;verticalAlign=middle;whiteSpace=wrap;rounded=0;" vertex="1" parent="1">
          <mxGeometry x="1103.46" y="-78.31" width="27.14" height="10" as="geometry" />
        </mxCell>
        <mxCell id="qsocSsxCrIzBuUTK78k4-110" value="&lt;font style=&quot;font-size: 8px;&quot;&gt;rdata&lt;/font&gt;" style="text;html=1;strokeColor=none;fillColor=none;align=center;verticalAlign=middle;whiteSpace=wrap;rounded=0;" vertex="1" parent="1">
          <mxGeometry x="1163.46" y="-113.78000000000009" width="30" height="10" as="geometry" />
        </mxCell>
        <mxCell id="qsocSsxCrIzBuUTK78k4-111" value="&lt;b style=&quot;font-size: 8px;&quot;&gt;&lt;font color=&quot;#0000ff&quot;&gt;CSR Register &lt;br&gt;File&lt;/font&gt;&lt;/b&gt;" style="rounded=0;whiteSpace=wrap;html=1;points=[[0,0,0,0,0],[0,0.25,0,0,0],[0,0.5,0,0,0],[0,0.75,0,0,0],[0,1,0,0,0],[0.25,0,0,0,0],[0.25,1,0,0,0],[0.5,0,0,0,0],[0.5,1,0,0,0],[0.75,0,0,0,0],[0.75,1,0,0,0],[1,0,0,0,0],[1,0.25,0,0,0],[1,0.5,0,0,0],[1,0.63,0,0,0],[1,0.75,0,0,0],[1,1,0,0,0]];fontColor=#007FFF;strokeColor=#0000FF;" vertex="1" parent="1">
          <mxGeometry x="1120.0000000000002" y="290" width="100" height="170" as="geometry" />
        </mxCell>
        <mxCell id="qsocSsxCrIzBuUTK78k4-112" value="&lt;font style=&quot;font-size: 8px;&quot;&gt;pc&lt;/font&gt;" style="text;html=1;strokeColor=none;fillColor=none;align=center;verticalAlign=middle;whiteSpace=wrap;rounded=0;fontColor=#0000ff;" vertex="1" parent="1">
          <mxGeometry x="1120.0000000000002" y="394" width="20" height="15" as="geometry" />
        </mxCell>
        <mxCell id="qsocSsxCrIzBuUTK78k4-113" value="&lt;font style=&quot;font-size: 8px;&quot;&gt;addr&lt;/font&gt;" style="text;html=1;strokeColor=none;fillColor=none;align=center;verticalAlign=middle;whiteSpace=wrap;rounded=0;fontColor=#0000ff;" vertex="1" parent="1">
          <mxGeometry x="1120.0000000000002" y="317" width="27.5" height="15" as="geometry" />
        </mxCell>
        <mxCell id="qsocSsxCrIzBuUTK78k4-115" value="&lt;span style=&quot;font-size: 8px;&quot;&gt;interrupt/exception&lt;br&gt;&lt;/span&gt;" style="text;html=1;strokeColor=none;fillColor=none;align=center;verticalAlign=middle;whiteSpace=wrap;rounded=0;fontColor=#0000ff;" vertex="1" parent="1">
          <mxGeometry x="1120.0000000000002" y="409" width="77.5" height="15" as="geometry" />
        </mxCell>
        <mxCell id="qsocSsxCrIzBuUTK78k4-116" value="&lt;font style=&quot;font-size: 8px;&quot;&gt;data&lt;/font&gt;" style="text;html=1;strokeColor=none;fillColor=none;align=center;verticalAlign=middle;whiteSpace=wrap;rounded=0;fontColor=#0000ff;" vertex="1" parent="1">
          <mxGeometry x="1120.0000000000002" y="335.5" width="27.5" height="15" as="geometry" />
        </mxCell>
        <mxCell id="qsocSsxCrIzBuUTK78k4-118" value="&lt;font style=&quot;font-size: 8px;&quot;&gt;inst&lt;/font&gt;" style="text;html=1;strokeColor=none;fillColor=none;align=center;verticalAlign=middle;whiteSpace=wrap;rounded=0;fontColor=#0000ff;" vertex="1" parent="1">
          <mxGeometry x="1120.0000000000002" y="424" width="22.5" height="15" as="geometry" />
        </mxCell>
        <mxCell id="qsocSsxCrIzBuUTK78k4-119" value="&lt;font style=&quot;font-size: 8px;&quot;&gt;rdata&lt;/font&gt;" style="text;html=1;strokeColor=none;fillColor=none;align=center;verticalAlign=middle;whiteSpace=wrap;rounded=0;fontColor=#0000ff;" vertex="1" parent="1">
          <mxGeometry x="1192.5000000000002" y="345" width="27.5" height="15" as="geometry" />
        </mxCell>
        <mxCell id="qsocSsxCrIzBuUTK78k4-121" value="&lt;font style=&quot;font-size: 8px;&quot;&gt;epc&lt;/font&gt;" style="text;html=1;strokeColor=none;fillColor=none;align=center;verticalAlign=middle;whiteSpace=wrap;rounded=0;fontColor=#0000ff;" vertex="1" parent="1">
          <mxGeometry x="1192.5000000000002" y="382.5" width="27.5" height="15" as="geometry" />
        </mxCell>
        <mxCell id="qsocSsxCrIzBuUTK78k4-128" value="" style="endArrow=open;html=1;rounded=0;labelBackgroundColor=default;strokeColor=#ff0000;align=center;verticalAlign=middle;fontFamily=Helvetica;fontSize=11;fontColor=default;shape=connector;entryX=0;entryY=0.5;entryDx=0;entryDy=0;endFill=0;" edge="1" parent="1" target="qsocSsxCrIzBuUTK78k4-129">
          <mxGeometry width="50" height="50" relative="1" as="geometry">
            <mxPoint x="194.89" y="-35.33000000000004" as="sourcePoint" />
            <mxPoint x="274.89" y="-35" as="targetPoint" />
          </mxGeometry>
        </mxCell>
        <mxCell id="qsocSsxCrIzBuUTK78k4-129" value="&lt;font color=&quot;#ff0000&quot;&gt;pc_sel&lt;/font&gt;" style="text;html=1;strokeColor=none;fillColor=none;align=center;verticalAlign=middle;whiteSpace=wrap;rounded=0;fontSize=11;fontFamily=Helvetica;fontColor=default;" vertex="1" parent="1">
          <mxGeometry x="254.89" y="-50" width="40" height="30" as="geometry" />
        </mxCell>
        <mxCell id="qsocSsxCrIzBuUTK78k4-130" value="" style="endArrow=open;html=1;rounded=0;labelBackgroundColor=default;strokeColor=#ff0000;align=center;verticalAlign=middle;fontFamily=Helvetica;fontSize=11;fontColor=default;shape=connector;entryX=0;entryY=0.5;entryDx=0;entryDy=0;endFill=0;" edge="1" parent="1" target="qsocSsxCrIzBuUTK78k4-131">
          <mxGeometry width="50" height="50" relative="1" as="geometry">
            <mxPoint x="194.89" y="-12.830000000000041" as="sourcePoint" />
            <mxPoint x="274.89" y="-12.5" as="targetPoint" />
          </mxGeometry>
        </mxCell>
        <mxCell id="qsocSsxCrIzBuUTK78k4-131" value="&lt;font color=&quot;#ff0000&quot;&gt;opr_a_sel&lt;/font&gt;" style="text;html=1;strokeColor=none;fillColor=none;align=center;verticalAlign=middle;whiteSpace=wrap;rounded=0;fontSize=11;fontFamily=Helvetica;fontColor=default;" vertex="1" parent="1">
          <mxGeometry x="254.89" y="-27.5" width="60" height="30" as="geometry" />
        </mxCell>
        <mxCell id="qsocSsxCrIzBuUTK78k4-132" value="" style="endArrow=open;html=1;rounded=0;labelBackgroundColor=default;strokeColor=#ff0000;align=center;verticalAlign=middle;fontFamily=Helvetica;fontSize=11;fontColor=default;shape=connector;entryX=0;entryY=0.5;entryDx=0;entryDy=0;endFill=0;" edge="1" parent="1" target="qsocSsxCrIzBuUTK78k4-133">
          <mxGeometry width="50" height="50" relative="1" as="geometry">
            <mxPoint x="194.89" y="8.669999999999959" as="sourcePoint" />
            <mxPoint x="274.89" y="9" as="targetPoint" />
          </mxGeometry>
        </mxCell>
        <mxCell id="qsocSsxCrIzBuUTK78k4-133" value="&lt;font color=&quot;#ff0000&quot;&gt;opr_b_sel&lt;/font&gt;" style="text;html=1;strokeColor=none;fillColor=none;align=center;verticalAlign=middle;whiteSpace=wrap;rounded=0;fontSize=11;fontFamily=Helvetica;fontColor=default;" vertex="1" parent="1">
          <mxGeometry x="254.89" y="-6" width="60" height="30" as="geometry" />
        </mxCell>
        <mxCell id="qsocSsxCrIzBuUTK78k4-134" value="" style="endArrow=open;html=1;rounded=0;labelBackgroundColor=default;strokeColor=#ff0000;align=center;verticalAlign=middle;fontFamily=Helvetica;fontSize=11;fontColor=default;shape=connector;entryX=0;entryY=0.5;entryDx=0;entryDy=0;endFill=0;" edge="1" parent="1" target="qsocSsxCrIzBuUTK78k4-135">
          <mxGeometry width="50" height="50" relative="1" as="geometry">
            <mxPoint x="194.89" y="28.66999999999996" as="sourcePoint" />
            <mxPoint x="274.89" y="29" as="targetPoint" />
          </mxGeometry>
        </mxCell>
        <mxCell id="qsocSsxCrIzBuUTK78k4-135" value="&lt;font color=&quot;#ff0000&quot;&gt;wb_sel&lt;/font&gt;" style="text;html=1;strokeColor=none;fillColor=none;align=center;verticalAlign=middle;whiteSpace=wrap;rounded=0;fontSize=11;fontFamily=Helvetica;fontColor=default;" vertex="1" parent="1">
          <mxGeometry x="254.89" y="14" width="50" height="30" as="geometry" />
        </mxCell>
        <mxCell id="qsocSsxCrIzBuUTK78k4-136" value="" style="endArrow=open;html=1;rounded=0;labelBackgroundColor=default;strokeColor=#ff0000;align=center;verticalAlign=middle;fontFamily=Helvetica;fontSize=11;fontColor=default;shape=connector;entryX=0;entryY=0.5;entryDx=0;entryDy=0;endFill=0;" edge="1" parent="1" target="qsocSsxCrIzBuUTK78k4-137">
          <mxGeometry width="50" height="50" relative="1" as="geometry">
            <mxPoint x="194.89" y="49.66999999999996" as="sourcePoint" />
            <mxPoint x="274.89" y="50" as="targetPoint" />
          </mxGeometry>
        </mxCell>
        <mxCell id="qsocSsxCrIzBuUTK78k4-137" value="&lt;font color=&quot;#ff0000&quot;&gt;rf_en&lt;/font&gt;" style="text;html=1;strokeColor=none;fillColor=none;align=center;verticalAlign=middle;whiteSpace=wrap;rounded=0;fontSize=11;fontFamily=Helvetica;fontColor=default;" vertex="1" parent="1">
          <mxGeometry x="254.89" y="35" width="40" height="30" as="geometry" />
        </mxCell>
        <mxCell id="qsocSsxCrIzBuUTK78k4-138" value="" style="endArrow=open;html=1;rounded=0;labelBackgroundColor=default;strokeColor=#ff0000;align=center;verticalAlign=middle;fontFamily=Helvetica;fontSize=11;fontColor=default;shape=connector;entryX=0;entryY=0.5;entryDx=0;entryDy=0;endFill=0;" edge="1" parent="1" target="qsocSsxCrIzBuUTK78k4-139">
          <mxGeometry width="50" height="50" relative="1" as="geometry">
            <mxPoint x="194.89" y="69.66999999999996" as="sourcePoint" />
            <mxPoint x="274.89" y="70" as="targetPoint" />
          </mxGeometry>
        </mxCell>
        <mxCell id="qsocSsxCrIzBuUTK78k4-139" value="&lt;font color=&quot;#ff0000&quot;&gt;alu_op&lt;/font&gt;" style="text;html=1;strokeColor=none;fillColor=none;align=center;verticalAlign=middle;whiteSpace=wrap;rounded=0;fontSize=11;fontFamily=Helvetica;fontColor=default;" vertex="1" parent="1">
          <mxGeometry x="254.89" y="55" width="50" height="30" as="geometry" />
        </mxCell>
        <mxCell id="qsocSsxCrIzBuUTK78k4-140" value="" style="endArrow=open;html=1;rounded=0;labelBackgroundColor=default;strokeColor=#ff0000;align=center;verticalAlign=middle;fontFamily=Helvetica;fontSize=11;fontColor=default;shape=connector;entryX=0;entryY=0.5;entryDx=0;entryDy=0;endFill=0;" edge="1" parent="1" target="qsocSsxCrIzBuUTK78k4-141">
          <mxGeometry width="50" height="50" relative="1" as="geometry">
            <mxPoint x="194.89" y="89.66999999999996" as="sourcePoint" />
            <mxPoint x="274.89" y="90" as="targetPoint" />
          </mxGeometry>
        </mxCell>
        <mxCell id="qsocSsxCrIzBuUTK78k4-141" value="&lt;font color=&quot;#ff0000&quot;&gt;imm_type&lt;/font&gt;" style="text;html=1;strokeColor=none;fillColor=none;align=center;verticalAlign=middle;whiteSpace=wrap;rounded=0;fontSize=11;fontFamily=Helvetica;fontColor=default;" vertex="1" parent="1">
          <mxGeometry x="254.89" y="75" width="60" height="30" as="geometry" />
        </mxCell>
        <mxCell id="qsocSsxCrIzBuUTK78k4-142" style="edgeStyle=orthogonalEdgeStyle;shape=connector;rounded=0;orthogonalLoop=1;jettySize=auto;html=1;entryX=0;entryY=0.75;entryDx=0;entryDy=0;labelBackgroundColor=default;strokeColor=#000000;align=center;verticalAlign=middle;fontFamily=Helvetica;fontSize=11;fontColor=default;endArrow=open;exitX=0.5;exitY=0;exitDx=0;exitDy=0;endFill=0;" edge="1" parent="1" source="qsocSsxCrIzBuUTK78k4-144" target="qsocSsxCrIzBuUTK78k4-85">
          <mxGeometry relative="1" as="geometry">
            <Array as="points">
              <mxPoint x="-370.11" y="-89" />
              <mxPoint x="-370.11" y="-104" />
            </Array>
          </mxGeometry>
        </mxCell>
        <mxCell id="qsocSsxCrIzBuUTK78k4-143" style="edgeStyle=orthogonalEdgeStyle;shape=connector;rounded=0;orthogonalLoop=1;jettySize=auto;html=1;exitX=1;exitY=0.5;exitDx=0;exitDy=0;labelBackgroundColor=default;strokeColor=#0000ff;align=center;verticalAlign=middle;fontFamily=Helvetica;fontSize=11;fontColor=default;endArrow=open;entryX=1;entryY=0.5;entryDx=0;entryDy=0;endFill=0;" edge="1" parent="1" target="qsocSsxCrIzBuUTK78k4-144">
          <mxGeometry relative="1" as="geometry">
            <mxPoint x="-399.83727272727276" y="-28" as="sourcePoint" />
          </mxGeometry>
        </mxCell>
        <mxCell id="qsocSsxCrIzBuUTK78k4-144" value="" style="shape=trapezoid;perimeter=trapezoidPerimeter;whiteSpace=wrap;html=1;fixedSize=1;rotation=90;size=13.269999999999982;" vertex="1" parent="1">
          <mxGeometry x="-435.11" y="-100.5100000000001" width="70" height="22.2" as="geometry" />
        </mxCell>
        <mxCell id="qsocSsxCrIzBuUTK78k4-145" value="&lt;font color=&quot;#0000ff&quot;&gt;interrupt&lt;/font&gt;" style="text;html=1;align=center;verticalAlign=middle;resizable=0;points=[];autosize=1;strokeColor=none;fillColor=none;fontSize=11;fontFamily=Helvetica;fontColor=default;" vertex="1" parent="1">
          <mxGeometry x="-430.11" y="-38.5" width="60" height="30" as="geometry" />
        </mxCell>
        <mxCell id="qsocSsxCrIzBuUTK78k4-146" value="&lt;b&gt;&lt;font style=&quot;font-size: 8px;&quot;&gt;ALU&lt;/font&gt;&lt;/b&gt;" style="text;html=1;strokeColor=none;fillColor=none;align=center;verticalAlign=middle;whiteSpace=wrap;rounded=0;fontSize=11;fontFamily=Helvetica;fontColor=default;" vertex="1" parent="1">
          <mxGeometry x="758.89" y="-298.78" width="60" height="30" as="geometry" />
        </mxCell>
        <mxCell id="qsocSsxCrIzBuUTK78k4-155" value="" style="group" connectable="0" vertex="1" parent="1">
          <mxGeometry x="-35.11" y="-430" width="20" height="634" as="geometry" />
        </mxCell>
        <mxCell id="qsocSsxCrIzBuUTK78k4-152" value="" style="rounded=0;whiteSpace=wrap;html=1;" vertex="1" parent="qsocSsxCrIzBuUTK78k4-155">
          <mxGeometry width="20" height="634" as="geometry" />
        </mxCell>
        <mxCell id="qsocSsxCrIzBuUTK78k4-153" value="" style="triangle;whiteSpace=wrap;html=1;rotation=90;" vertex="1" parent="qsocSsxCrIzBuUTK78k4-155">
          <mxGeometry x="-3.75" y="3.75" width="27.5" height="20" as="geometry" />
        </mxCell>
        <mxCell id="rQjSW9OJ4u-2Hxz2X1gc-1" value="" style="group" connectable="0" vertex="1" parent="1">
          <mxGeometry x="454.89" y="-430" width="20" height="634" as="geometry" />
        </mxCell>
        <mxCell id="rQjSW9OJ4u-2Hxz2X1gc-2" value="" style="rounded=0;whiteSpace=wrap;html=1;" vertex="1" parent="rQjSW9OJ4u-2Hxz2X1gc-1">
          <mxGeometry width="20" height="634" as="geometry" />
        </mxCell>
        <mxCell id="rQjSW9OJ4u-2Hxz2X1gc-3" value="" style="triangle;whiteSpace=wrap;html=1;rotation=90;" vertex="1" parent="rQjSW9OJ4u-2Hxz2X1gc-1">
          <mxGeometry x="-3.75" y="3.75" width="27.5" height="20" as="geometry" />
        </mxCell>
        <mxCell id="rQjSW9OJ4u-2Hxz2X1gc-4" style="edgeStyle=orthogonalEdgeStyle;rounded=0;orthogonalLoop=1;jettySize=auto;html=1;" edge="1" parent="1">
          <mxGeometry relative="1" as="geometry">
            <mxPoint x="644.89" y="-250.0300000000001" as="sourcePoint" />
            <mxPoint x="644.89" y="-250.0300000000001" as="targetPoint" />
          </mxGeometry>
        </mxCell>
        <mxCell id="rQjSW9OJ4u-2Hxz2X1gc-5" style="edgeStyle=orthogonalEdgeStyle;rounded=0;orthogonalLoop=1;jettySize=auto;html=1;exitX=1;exitY=0.5;exitDx=0;exitDy=0;entryX=0;entryY=0.5;entryDx=0;entryDy=0;endArrow=open;endFill=0;" edge="1" parent="1" source="qsocSsxCrIzBuUTK78k4-152" target="qsocSsxCrIzBuUTK78k4-66">
          <mxGeometry relative="1" as="geometry" />
        </mxCell>
        <mxCell id="rQjSW9OJ4u-2Hxz2X1gc-11" value="" style="endArrow=open;html=1;rounded=0;endFill=0;entryX=0.75;entryY=1;entryDx=0;entryDy=0;exitDx=0;exitDy=0;exitPerimeter=0;" edge="1" parent="1" source="rQjSW9OJ4u-2Hxz2X1gc-14" target="qsocSsxCrIzBuUTK78k4-71">
          <mxGeometry width="50" height="50" relative="1" as="geometry">
            <mxPoint x="499.89" y="-320.8" as="sourcePoint" />
            <mxPoint x="549.89" y="-370.8" as="targetPoint" />
            <Array as="points">
              <mxPoint x="544.89" y="-321" />
            </Array>
          </mxGeometry>
        </mxCell>
        <mxCell id="rQjSW9OJ4u-2Hxz2X1gc-13" style="edgeStyle=orthogonalEdgeStyle;rounded=0;orthogonalLoop=1;jettySize=auto;html=1;entryX=0.75;entryY=1;entryDx=0;entryDy=0;endArrow=open;endFill=0;" edge="1" parent="1" source="rQjSW9OJ4u-2Hxz2X1gc-2" target="qsocSsxCrIzBuUTK78k4-61">
          <mxGeometry relative="1" as="geometry">
            <Array as="points">
              <mxPoint x="494.89" y="-113" />
              <mxPoint x="494.89" y="-215" />
            </Array>
          </mxGeometry>
        </mxCell>
        <mxCell id="rQjSW9OJ4u-2Hxz2X1gc-7" value="" style="group" connectable="0" vertex="1" parent="1">
          <mxGeometry x="904.89" y="-428" width="20" height="634" as="geometry" />
        </mxCell>
        <mxCell id="rQjSW9OJ4u-2Hxz2X1gc-8" value="" style="rounded=0;whiteSpace=wrap;html=1;" vertex="1" parent="rQjSW9OJ4u-2Hxz2X1gc-7">
          <mxGeometry width="20" height="634" as="geometry" />
        </mxCell>
        <mxCell id="rQjSW9OJ4u-2Hxz2X1gc-9" value="" style="triangle;whiteSpace=wrap;html=1;rotation=90;" vertex="1" parent="rQjSW9OJ4u-2Hxz2X1gc-7">
          <mxGeometry x="-3.75" y="3.75" width="27.5" height="20" as="geometry" />
        </mxCell>
        <mxCell id="rQjSW9OJ4u-2Hxz2X1gc-15" style="edgeStyle=orthogonalEdgeStyle;rounded=0;orthogonalLoop=1;jettySize=auto;html=1;entryX=0;entryY=0.75;entryDx=0;entryDy=0;endArrow=open;endFill=0;" edge="1" parent="1" source="rQjSW9OJ4u-2Hxz2X1gc-14" target="qsocSsxCrIzBuUTK78k4-83">
          <mxGeometry relative="1" as="geometry">
            <Array as="points">
              <mxPoint x="534.89" y="-321" />
              <mxPoint x="534.89" y="95" />
            </Array>
          </mxGeometry>
        </mxCell>
        <mxCell id="rQjSW9OJ4u-2Hxz2X1gc-19" style="edgeStyle=orthogonalEdgeStyle;rounded=0;orthogonalLoop=1;jettySize=auto;html=1;entryX=0;entryY=0.75;entryDx=0;entryDy=0;endArrow=open;endFill=0;" edge="1" parent="1" source="rQjSW9OJ4u-2Hxz2X1gc-18" target="qsocSsxCrIzBuUTK78k4-84">
          <mxGeometry relative="1" as="geometry">
            <Array as="points">
              <mxPoint x="494.89" y="125" />
            </Array>
          </mxGeometry>
        </mxCell>
        <mxCell id="A-zAFiVIeCYd5Qx_0c2q-2" style="edgeStyle=orthogonalEdgeStyle;rounded=0;orthogonalLoop=1;jettySize=auto;html=1;endArrow=open;endFill=0;entryX=0.041;entryY=0.56;entryDx=0;entryDy=0;entryPerimeter=0;" edge="1" parent="1" source="rQjSW9OJ4u-2Hxz2X1gc-18" target="rQjSW9OJ4u-2Hxz2X1gc-8">
          <mxGeometry relative="1" as="geometry">
            <mxPoint x="974.89" y="-73" as="targetPoint" />
            <Array as="points">
              <mxPoint x="744.89" y="-113" />
              <mxPoint x="744.89" y="-73" />
            </Array>
          </mxGeometry>
        </mxCell>
        <mxCell id="rQjSW9OJ4u-2Hxz2X1gc-18" value="" style="shape=waypoint;sketch=0;fillStyle=solid;size=6;pointerEvents=1;points=[];fillColor=none;resizable=0;rotatable=0;perimeter=centerPerimeter;snapToPoint=1;" vertex="1" parent="1">
          <mxGeometry x="484.89" y="-123" width="20" height="20" as="geometry" />
        </mxCell>
        <mxCell id="rQjSW9OJ4u-2Hxz2X1gc-20" style="edgeStyle=orthogonalEdgeStyle;rounded=0;orthogonalLoop=1;jettySize=auto;html=1;endArrow=open;endFill=0;" edge="1" parent="1" source="qsocSsxCrIzBuUTK78k4-51">
          <mxGeometry relative="1" as="geometry">
            <mxPoint x="-35.11" y="-385" as="targetPoint" />
            <Array as="points">
              <mxPoint x="-235.11" y="-385" />
            </Array>
          </mxGeometry>
        </mxCell>
        <mxCell id="rQjSW9OJ4u-2Hxz2X1gc-21" value="" style="endArrow=open;html=1;rounded=0;entryX=-0.053;entryY=0.069;entryDx=0;entryDy=0;entryPerimeter=0;exitX=1.003;exitY=0.071;exitDx=0;exitDy=0;exitPerimeter=0;endFill=0;" edge="1" parent="1" source="qsocSsxCrIzBuUTK78k4-152" target="rQjSW9OJ4u-2Hxz2X1gc-2">
          <mxGeometry width="50" height="50" relative="1" as="geometry">
            <mxPoint x="-15.11" y="-380" as="sourcePoint" />
            <mxPoint x="34.89" y="-430" as="targetPoint" />
          </mxGeometry>
        </mxCell>
        <mxCell id="rQjSW9OJ4u-2Hxz2X1gc-22" value="" style="endArrow=open;html=1;rounded=0;exitDx=0;exitDy=0;exitPerimeter=0;endFill=0;entryX=-0.02;entryY=0.063;entryDx=0;entryDy=0;entryPerimeter=0;" edge="1" parent="1" source="rQjSW9OJ4u-2Hxz2X1gc-24" target="rQjSW9OJ4u-2Hxz2X1gc-8">
          <mxGeometry width="50" height="50" relative="1" as="geometry">
            <mxPoint x="574.83" y="-388.75" as="sourcePoint" />
            <mxPoint x="974.89" y="-388" as="targetPoint" />
          </mxGeometry>
        </mxCell>
        <mxCell id="rQjSW9OJ4u-2Hxz2X1gc-23" value="" style="endArrow=none;html=1;rounded=0;exitX=1.02;exitY=0.067;exitDx=0;exitDy=0;exitPerimeter=0;endFill=0;entryDx=0;entryDy=0;entryPerimeter=0;" edge="1" parent="1" source="rQjSW9OJ4u-2Hxz2X1gc-2" target="rQjSW9OJ4u-2Hxz2X1gc-24">
          <mxGeometry width="50" height="50" relative="1" as="geometry">
            <mxPoint x="474.89" y="-388" as="sourcePoint" />
            <mxPoint x="974.89" y="-389" as="targetPoint" />
          </mxGeometry>
        </mxCell>
        <mxCell id="rQjSW9OJ4u-2Hxz2X1gc-25" style="edgeStyle=orthogonalEdgeStyle;rounded=0;orthogonalLoop=1;jettySize=auto;html=1;endArrow=open;endFill=0;entryX=0.25;entryY=1;entryDx=0;entryDy=0;" edge="1" parent="1" source="rQjSW9OJ4u-2Hxz2X1gc-24" target="qsocSsxCrIzBuUTK78k4-71">
          <mxGeometry relative="1" as="geometry">
            <mxPoint x="634.89" y="-318" as="targetPoint" />
            <Array as="points">
              <mxPoint x="634.89" y="-356" />
            </Array>
          </mxGeometry>
        </mxCell>
        <mxCell id="rQjSW9OJ4u-2Hxz2X1gc-24" value="" style="shape=waypoint;sketch=0;fillStyle=solid;size=6;pointerEvents=1;points=[];fillColor=none;resizable=0;rotatable=0;perimeter=centerPerimeter;snapToPoint=1;" vertex="1" parent="1">
          <mxGeometry x="624.89" y="-398" width="20" height="20" as="geometry" />
        </mxCell>
        <mxCell id="rQjSW9OJ4u-2Hxz2X1gc-26" value="" style="endArrow=none;html=1;rounded=0;endFill=0;entryDx=0;entryDy=0;exitX=0.994;exitY=0.172;exitDx=0;exitDy=0;exitPerimeter=0;" edge="1" parent="1" source="rQjSW9OJ4u-2Hxz2X1gc-2" target="rQjSW9OJ4u-2Hxz2X1gc-14">
          <mxGeometry width="50" height="50" relative="1" as="geometry">
            <mxPoint x="474.89" y="-321" as="sourcePoint" />
            <mxPoint x="698.89" y="-321" as="targetPoint" />
            <Array as="points" />
          </mxGeometry>
        </mxCell>
        <mxCell id="rQjSW9OJ4u-2Hxz2X1gc-14" value="" style="shape=waypoint;sketch=0;fillStyle=solid;size=6;pointerEvents=1;points=[];fillColor=none;resizable=0;rotatable=0;perimeter=centerPerimeter;snapToPoint=1;" vertex="1" parent="1">
          <mxGeometry x="524.89" y="-331.9" width="20" height="20" as="geometry" />
        </mxCell>
        <mxCell id="rQjSW9OJ4u-2Hxz2X1gc-27" value="" style="group" connectable="0" vertex="1" parent="1">
          <mxGeometry x="1374.89" y="-433.9" width="20" height="634" as="geometry" />
        </mxCell>
        <mxCell id="rQjSW9OJ4u-2Hxz2X1gc-28" value="" style="rounded=0;whiteSpace=wrap;html=1;" vertex="1" parent="rQjSW9OJ4u-2Hxz2X1gc-27">
          <mxGeometry width="20" height="634" as="geometry" />
        </mxCell>
        <mxCell id="rQjSW9OJ4u-2Hxz2X1gc-29" value="" style="triangle;whiteSpace=wrap;html=1;rotation=90;" vertex="1" parent="rQjSW9OJ4u-2Hxz2X1gc-27">
          <mxGeometry x="-3.75" y="3.75" width="27.5" height="20" as="geometry" />
        </mxCell>
        <mxCell id="A-zAFiVIeCYd5Qx_0c2q-1" style="edgeStyle=orthogonalEdgeStyle;rounded=0;orthogonalLoop=1;jettySize=auto;html=1;exitX=0.986;exitY=0.232;exitDx=0;exitDy=0;exitPerimeter=0;endArrow=none;endFill=0;" edge="1" parent="1" source="rQjSW9OJ4u-2Hxz2X1gc-8" target="qsocSsxCrIzBuUTK78k4-42">
          <mxGeometry relative="1" as="geometry" />
        </mxCell>
        <mxCell id="A-zAFiVIeCYd5Qx_0c2q-3" value="" style="endArrow=open;html=1;rounded=0;endFill=0;entryX=0;entryY=0.5;entryDx=0;entryDy=0;exitX=0.994;exitY=0.561;exitDx=0;exitDy=0;exitPerimeter=0;" edge="1" parent="1" source="rQjSW9OJ4u-2Hxz2X1gc-8" target="qsocSsxCrIzBuUTK78k4-109">
          <mxGeometry width="50" height="50" relative="1" as="geometry">
            <mxPoint x="924.89" y="-68.31" as="sourcePoint" />
            <mxPoint x="974.89" y="-118.31" as="targetPoint" />
          </mxGeometry>
        </mxCell>
        <mxCell id="A-zAFiVIeCYd5Qx_0c2q-4" style="edgeStyle=orthogonalEdgeStyle;rounded=0;orthogonalLoop=1;jettySize=auto;html=1;entryX=0;entryY=0.5;entryDx=0;entryDy=0;endArrow=open;endFill=0;exitX=0.5;exitY=0;exitDx=0;exitDy=0;exitPerimeter=0;" edge="1" parent="1" source="qsocSsxCrIzBuUTK78k4-126" target="qsocSsxCrIzBuUTK78k4-10">
          <mxGeometry relative="1" as="geometry">
            <mxPoint x="214.88999999999987" y="-233.97000000000008" as="targetPoint" />
            <mxPoint x="1526.1000000000008" y="-113.6799999999999" as="sourcePoint" />
            <Array as="points">
              <mxPoint x="1500" y="-122" />
              <mxPoint x="1500" y="270" />
              <mxPoint x="215" y="270" />
              <mxPoint x="215" y="-237" />
            </Array>
          </mxGeometry>
        </mxCell>
        <mxCell id="qsocSsxCrIzBuUTK78k4-126" value="" style="shape=trapezoid;perimeter=trapezoidPerimeter;whiteSpace=wrap;html=1;fixedSize=1;rotation=90;size=13.269999999999982;points=[[0,0,0,0,0],[0,0.25,0,0,0],[0,0.5,0,0,0],[0,0.75,0,0,0],[0,1,0,0,0],[0.2,1,0,0,0],[0.25,0,0,0,0],[0.4,1,0,0,0],[0.5,0,0,0,0],[0.6,1,0,0,0],[0.75,0,0,0,0],[0.8,0.64,0,0,8],[1,0,0,0,0],[1,0.25,0,0,0],[1,0.5,0,0,0],[1,0.75,0,0,0],[1,1,0,0,0]];" vertex="1" parent="1">
          <mxGeometry x="1410.0000000000002" y="-133.21000000000004" width="70" height="22.2" as="geometry" />
        </mxCell>
        <mxCell id="A-zAFiVIeCYd5Qx_0c2q-7" value="&lt;font style=&quot;font-size: 25px;&quot;&gt;&lt;b&gt;DSP Co- processor&lt;/b&gt;&lt;/font&gt;" style="rounded=0;whiteSpace=wrap;html=1;" vertex="1" parent="1">
          <mxGeometry x="-130" y="590" width="1700" height="280" as="geometry" />
        </mxCell>
      </root>
    </mxGraphModel>
  </diagram>
</mxfile>
